{"glyphs":{"0":{"ha":792,"x_min":106,"x_max":686,"o":"m 106 169 q 145 22 106 64 q 288 -19 185 -19 q 592 25 496 -19 q 686 174 686 69 l 686 804 q 647 951 686 907 q 514 993 608 994 q 206 946 306 990 q 106 800 106 901 l 106 169 m 528 181 q 516 106 529 132 q 468 67 503 79 q 365 53 433 56 q 286 78 308 51 q 264 175 264 104 l 264 793 q 277 865 263 839 q 327 905 292 892 q 429 921 363 918 q 505 890 482 922 q 528 785 528 857 l 528 181 z "},"1":{"ha":467,"x_min":11,"x_max":444,"o":"m 440 8 q 444 32 444 21 q 439 58 444 49 l 343 56 q 328 132 328 56 l 328 931 q 324 972 329 960 q 303 987 319 983 q 244 990 286 990 q 15 964 126 990 q 11 940 11 951 q 17 914 11 924 l 154 917 q 169 840 169 917 l 169 42 q 173 1 168 13 q 194 -15 178 -11 q 253 -18 211 -18 q 440 8 349 -18 z "},"2":{"ha":747,"x_min":60,"x_max":690,"o":"m 535 482 q 626 681 626 588 l 626 804 q 592 953 626 908 q 472 993 557 999 q 300 978 365 988 q 181 949 235 968 q 64 793 64 906 l 64 622 q 89 597 64 597 q 222 643 222 597 l 222 786 q 258 885 222 856 q 388 922 293 914 q 453 894 433 926 q 472 793 472 863 l 472 688 q 368 469 472 617 q 272 338 324 404 q 158 196 219 272 l 60 72 q 90 -18 60 3 q 553 14 418 -21 q 690 146 690 47 l 690 275 q 665 300 690 300 q 547 283 597 300 q 524 254 524 275 l 524 153 q 460 90 524 104 q 192 65 396 74 l 535 482 z "},"3":{"ha":736,"x_min":86,"x_max":653,"o":"m 481 688 q 469 617 481 642 q 424 580 457 592 q 328 564 392 568 q 322 525 322 551 q 331 483 322 500 q 413 493 385 493 q 481 463 463 493 q 500 351 500 433 l 500 181 q 487 110 500 135 q 442 72 474 85 q 351 54 411 60 l 332 53 q 265 83 283 53 q 246 189 246 114 l 246 338 q 221 363 246 363 q 88 317 90 361 l 88 169 q 130 18 88 60 q 279 -18 172 -24 q 567 32 482 -7 q 653 174 653 69 l 653 357 q 626 491 653 446 q 524 549 599 536 l 524 551 q 607 592 583 567 q 631 656 631 617 l 631 804 q 600 953 631 908 q 474 993 572 993 q 398 990 436 993 q 351 985 360 986 q 242 966 294 979 q 160 935 190 953 q 106 880 125 914 q 86 800 86 846 l 86 643 q 111 618 86 618 q 244 664 244 618 l 244 793 q 258 866 244 840 q 305 904 272 892 q 400 922 338 917 q 461 901 442 926 q 481 814 481 876 l 481 688 z "},"4":{"ha":696,"x_min":14,"x_max":651,"o":"m 642 254 q 649 299 649 272 q 640 338 649 315 l 535 329 l 535 1003 q 372 978 444 1003 l 21 289 q 14 258 14 271 q 22 206 14 233 l 376 232 l 376 42 q 381 1 375 13 q 406 -15 388 -11 q 469 -18 425 -18 q 647 8 556 -18 q 651 31 651 19 q 646 58 651 42 l 550 56 q 535 132 535 56 l 535 246 l 642 254 m 376 693 l 376 317 l 133 297 l 329 706 l 381 839 l 383 839 l 376 693 z "},"5":{"ha":713,"x_min":78,"x_max":629,"o":"m 210 313 q 101 296 151 313 q 78 267 78 288 l 78 169 q 127 25 78 75 q 272 -25 176 -25 q 629 174 629 -25 l 629 485 q 614 593 629 554 q 562 648 599 632 q 460 664 525 664 q 261 632 369 664 l 261 894 q 613 929 408 929 q 619 968 619 953 q 611 1006 619 989 q 182 964 331 1006 q 117 906 117 943 l 117 533 q 149 525 132 525 q 161 526 157 525 q 419 578 346 583 q 460 561 449 576 q 471 507 471 546 l 471 181 q 450 97 471 118 q 375 67 429 75 q 307 58 317 58 q 275 64 288 58 q 253 83 263 69 q 235 189 235 106 l 235 288 q 210 313 235 313 z "},"6":{"ha":732,"x_min":104,"x_max":685,"o":"m 685 471 q 650 619 685 574 q 531 664 615 664 q 263 619 429 664 l 263 793 q 332 892 260 875 q 557 915 429 915 q 639 913 608 915 q 646 943 646 931 q 638 982 646 964 q 513 988 588 988 q 104 800 104 988 l 104 169 q 140 24 104 68 q 263 -19 175 -19 q 393 -12 332 -19 q 522 13 454 -6 q 641 74 597 33 q 685 174 685 115 l 685 471 m 263 549 q 355 573 297 561 q 444 585 413 585 q 508 553 489 585 q 526 451 526 522 l 526 181 q 486 91 526 117 q 347 60 446 65 q 282 85 301 57 q 263 181 263 113 l 263 549 z "},"7":{"ha":632,"x_min":40,"x_max":614,"o":"m 607 910 q 614 947 614 940 q 606 986 614 968 q 492 993 550 993 q 165 963 343 993 q 85 935 111 951 q 49 886 58 918 q 42 793 40 854 l 42 726 q 67 701 42 701 q 200 747 200 701 l 200 786 q 219 876 200 847 q 290 914 238 904 q 463 929 342 924 l 199 108 q 185 32 185 63 q 204 -8 185 1 q 276 -18 224 -18 q 474 8 374 -18 q 478 31 478 19 q 472 58 478 46 l 376 56 q 351 86 351 56 q 361 132 351 108 l 607 910 z "},"8":{"ha":744,"x_min":92,"x_max":654,"o":"m 654 357 q 627 492 654 447 q 525 549 600 536 l 525 551 q 631 665 631 576 l 631 813 q 617 920 631 882 q 572 976 604 958 q 481 993 540 993 q 360 990 424 993 q 256 976 306 986 q 181 947 207 965 q 113 810 113 901 l 113 686 q 114 639 113 649 q 119 599 114 621 q 135 568 125 578 q 219 531 167 539 l 219 528 q 126 478 160 513 q 92 407 92 444 l 92 169 q 129 26 92 69 q 254 -18 167 -18 q 654 175 649 -18 l 654 357 m 481 688 q 469 617 481 642 q 429 582 458 593 q 343 567 400 571 q 290 575 307 564 q 268 615 274 586 q 263 708 263 644 l 263 801 q 275 874 263 849 q 318 910 288 900 q 406 921 349 921 q 452 910 436 921 q 474 875 468 900 q 481 801 481 850 l 481 688 m 499 176 q 486 102 499 126 q 440 67 474 78 q 339 54 407 57 q 283 59 301 51 q 256 90 264 67 q 247 160 247 113 l 247 371 q 280 463 247 438 q 401 492 313 488 q 478 463 457 494 q 499 353 499 432 l 499 176 z "},"9":{"ha":735,"x_min":76,"x_max":629,"o":"m 76 499 q 111 351 76 396 q 231 306 146 306 q 471 346 333 306 l 471 176 q 403 79 474 104 q 218 54 332 54 q 136 57 167 54 q 129 26 129 39 q 138 -12 129 8 q 253 -18 183 -18 q 439 -1 358 -18 q 577 60 525 17 q 629 169 629 103 l 629 804 q 611 917 629 876 q 551 974 593 957 q 435 992 510 992 q 228 974 306 992 q 113 913 150 956 q 76 800 76 871 l 76 499 m 235 811 q 245 876 235 854 q 282 906 256 897 q 363 919 308 915 l 385 921 q 453 892 436 921 q 471 785 471 864 l 471 413 q 317 385 392 385 q 251 406 268 385 q 235 490 235 426 l 235 811 z "}," ":{"ha":317,"x_min":0,"x_max":0,"o":""},"A":{"ha":936,"x_min":56,"x_max":926,"o":"m 64 856 q 263 897 125 876 q 518 917 401 917 q 599 905 571 917 q 640 865 628 893 q 651 783 651 836 l 651 618 q 279 588 389 589 l 279 801 q 254 826 279 826 q 136 810 186 826 q 113 781 113 801 l 113 42 q 118 1 113 13 q 142 -15 124 -11 q 206 -18 161 -18 q 383 8 292 -18 q 388 32 388 21 q 382 58 388 49 l 294 56 q 279 132 279 56 l 279 515 q 651 546 486 519 l 651 42 q 656 1 650 13 q 681 -15 663 -11 q 744 -18 700 -18 q 922 8 831 -18 q 926 32 926 21 q 921 58 926 49 l 833 56 q 818 132 818 56 l 818 803 q 797 917 818 876 q 726 974 775 957 q 590 990 678 990 q 61 925 290 990 q 56 892 56 913 q 64 856 56 871 z "},"Á":{"ha":936,"x_min":56,"x_max":926,"o":"m 64 856 q 263 897 125 876 q 518 917 401 917 q 599 905 571 917 q 640 865 628 893 q 651 783 651 836 l 651 618 q 279 588 389 589 l 279 801 q 254 826 279 826 q 136 810 186 826 q 113 781 113 801 l 113 42 q 118 1 113 13 q 142 -15 124 -11 q 206 -18 161 -18 q 383 8 292 -18 q 388 32 388 21 q 382 58 388 49 l 294 56 q 279 132 279 56 l 279 515 q 651 546 486 519 l 651 42 q 656 1 650 13 q 681 -15 663 -11 q 744 -18 700 -18 q 922 8 831 -18 q 926 32 926 21 q 921 58 926 49 l 833 56 q 818 132 818 56 l 818 803 q 797 917 818 876 q 726 974 775 957 q 590 990 678 990 q 61 925 290 990 q 56 892 56 913 q 64 856 56 871 m 549 1275 q 376 1099 481 1196 q 371 1088 371 1094 q 384 1061 371 1078 q 408 1044 397 1044 q 465 1065 421 1042 q 618 1156 556 1111 q 649 1189 649 1176 q 619 1249 649 1213 q 571 1286 589 1286 q 549 1275 560 1286 z "},"Â":{"ha":936,"x_min":56,"x_max":926,"o":"m 64 856 q 263 897 125 876 q 518 917 401 917 q 599 905 571 917 q 640 865 628 893 q 651 783 651 836 l 651 618 q 279 588 389 589 l 279 801 q 254 826 279 826 q 136 810 186 826 q 113 781 113 801 l 113 42 q 118 1 113 13 q 142 -15 124 -11 q 206 -18 161 -18 q 383 8 292 -18 q 388 32 388 21 q 382 58 388 49 l 294 56 q 279 132 279 56 l 279 515 q 651 546 486 519 l 651 42 q 656 1 650 13 q 681 -15 663 -11 q 744 -18 700 -18 q 922 8 831 -18 q 926 32 926 21 q 921 58 926 49 l 833 56 q 818 132 818 56 l 818 803 q 797 917 818 876 q 726 974 775 957 q 590 990 678 990 q 61 925 290 990 q 56 892 56 913 q 64 856 56 871 m 453 1283 q 406 1272 424 1283 l 238 1090 q 235 1086 235 1088 q 239 1076 235 1082 q 251 1064 243 1069 q 292 1046 281 1046 q 319 1061 300 1046 l 450 1169 l 583 1065 q 614 1049 607 1049 q 632 1053 619 1049 q 667 1071 654 1061 q 672 1081 671 1074 q 668 1093 674 1088 q 500 1272 592 1181 q 453 1283 489 1283 z "},"Ä":{"ha":936,"x_min":56,"x_max":926,"o":"m 64 856 q 263 897 125 876 q 518 917 401 917 q 599 905 571 917 q 640 865 628 893 q 651 783 651 836 l 651 618 q 279 588 389 589 l 279 801 q 254 826 279 826 q 136 810 186 826 q 113 781 113 801 l 113 42 q 118 1 113 13 q 142 -15 124 -11 q 206 -18 161 -18 q 383 8 292 -18 q 388 32 388 21 q 382 58 388 49 l 294 56 q 279 132 279 56 l 279 515 q 651 546 486 519 l 651 42 q 656 1 650 13 q 681 -15 663 -11 q 744 -18 700 -18 q 922 8 831 -18 q 926 32 926 21 q 921 58 926 49 l 833 56 q 818 132 818 56 l 818 803 q 797 917 818 876 q 726 974 775 957 q 590 990 678 990 q 61 925 290 990 q 56 892 56 913 q 64 856 56 871 m 272 1111 q 292 1076 272 1074 l 392 1082 q 413 1091 408 1083 q 418 1119 418 1099 l 418 1186 q 414 1220 418 1213 q 394 1228 410 1228 l 297 1222 q 276 1214 281 1221 q 272 1185 272 1207 l 272 1118 l 272 1111 m 518 1111 q 538 1076 518 1074 l 639 1082 q 659 1091 654 1083 q 664 1119 664 1099 l 664 1186 q 660 1219 664 1211 q 642 1228 656 1228 l 544 1222 q 523 1214 528 1221 q 518 1185 518 1207 l 518 1118 l 518 1111 z "},"À":{"ha":936,"x_min":56,"x_max":926,"o":"m 64 856 q 263 897 125 876 q 518 917 401 917 q 599 905 571 917 q 640 865 628 893 q 651 783 651 836 l 651 618 q 279 588 389 589 l 279 801 q 254 826 279 826 q 136 810 186 826 q 113 781 113 801 l 113 42 q 118 1 113 13 q 142 -15 124 -11 q 206 -18 161 -18 q 383 8 292 -18 q 388 32 388 21 q 382 58 388 49 l 294 56 q 279 132 279 56 l 279 515 q 651 546 486 519 l 651 42 q 656 1 650 13 q 681 -15 663 -11 q 744 -18 700 -18 q 922 8 831 -18 q 926 32 926 21 q 921 58 926 49 l 833 56 q 818 132 818 56 l 818 803 q 797 917 818 876 q 726 974 775 957 q 590 990 678 990 q 61 925 290 990 q 56 892 56 913 q 64 856 56 871 m 388 1274 q 365 1285 376 1285 q 317 1249 347 1285 q 296 1216 304 1235 q 288 1188 288 1197 q 314 1157 288 1174 q 378 1115 346 1135 q 514 1044 449 1069 q 526 1043 518 1043 q 544 1051 536 1043 q 559 1069 553 1058 q 565 1088 565 1081 q 560 1097 565 1093 q 388 1274 456 1194 z "},"Å":{"ha":936,"x_min":56,"x_max":926,"o":"m 64 856 q 263 897 125 876 q 518 917 401 917 q 599 905 571 917 q 640 865 628 893 q 651 783 651 836 l 651 618 q 279 588 389 589 l 279 801 q 254 826 279 826 q 136 810 186 826 q 113 781 113 801 l 113 42 q 118 1 113 13 q 142 -15 124 -11 q 206 -18 161 -18 q 383 8 292 -18 q 388 32 388 21 q 382 58 388 49 l 294 56 q 279 132 279 56 l 279 515 q 651 546 486 519 l 651 42 q 656 1 650 13 q 681 -15 663 -11 q 744 -18 700 -18 q 922 8 831 -18 q 926 32 926 21 q 921 58 926 49 l 833 56 q 818 132 818 56 l 818 803 q 797 917 818 876 q 726 974 775 957 q 590 990 678 990 q 61 925 290 990 q 56 892 56 913 q 64 856 56 871 m 461 1040 q 525 1051 494 1040 q 578 1079 556 1061 q 613 1122 600 1097 q 626 1171 626 1146 q 613 1220 626 1196 q 578 1263 600 1244 q 525 1291 556 1281 q 461 1301 494 1301 q 353 1264 396 1301 q 310 1171 310 1226 q 353 1078 310 1115 q 461 1040 396 1040 m 467 1107 q 413 1125 436 1107 q 390 1171 390 1143 q 414 1217 390 1199 q 467 1235 438 1235 q 521 1217 497 1235 q 544 1171 544 1199 q 539 1146 544 1157 q 512 1119 532 1131 q 467 1107 492 1107 z "},"Ã":{"ha":936,"x_min":56,"x_max":926,"o":"m 64 856 q 263 897 125 876 q 518 917 401 917 q 599 905 571 917 q 640 865 628 893 q 651 783 651 836 l 651 618 q 279 588 389 589 l 279 801 q 254 826 279 826 q 136 810 186 826 q 113 781 113 801 l 113 42 q 118 1 113 13 q 142 -15 124 -11 q 206 -18 161 -18 q 383 8 292 -18 q 388 32 388 21 q 382 58 388 49 l 294 56 q 279 132 279 56 l 279 515 q 651 546 486 519 l 651 42 q 656 1 650 13 q 681 -15 663 -11 q 744 -18 700 -18 q 922 8 831 -18 q 926 32 926 21 q 921 58 926 49 l 833 56 q 818 132 818 56 l 818 803 q 797 917 818 876 q 726 974 775 957 q 590 990 678 990 q 61 925 290 990 q 56 892 56 913 q 64 856 56 871 m 301 1101 q 322 1122 310 1113 q 382 1146 349 1146 q 461 1110 413 1146 q 547 1072 510 1072 q 654 1114 603 1072 q 685 1148 674 1131 q 697 1178 697 1165 q 688 1208 699 1193 q 668 1222 678 1222 q 649 1208 661 1222 q 569 1172 613 1172 q 486 1207 538 1172 q 388 1242 435 1242 q 336 1230 363 1242 q 289 1200 310 1218 q 252 1159 267 1181 q 238 1119 238 1138 q 253 1094 238 1113 q 264 1083 258 1088 q 274 1078 269 1078 q 283 1082 279 1078 l 301 1101 z "},"Æ":{"ha":1317,"x_min":56,"x_max":1294,"o":"m 744 967 q 590 990 694 990 q 61 925 290 990 q 56 892 56 913 q 64 856 56 871 q 263 897 125 876 q 518 917 401 917 q 599 905 571 917 q 640 865 628 893 q 651 783 651 836 l 651 618 q 279 588 389 589 l 279 801 q 254 826 279 826 q 136 810 186 826 q 113 781 113 801 l 113 42 q 117 1 111 13 q 142 -15 124 -11 q 206 -18 161 -18 q 383 8 292 -18 q 388 32 388 21 q 382 58 388 49 l 294 56 q 279 132 279 56 l 279 515 q 651 546 486 519 l 651 88 q 688 7 651 32 q 801 -18 724 -18 l 863 -18 q 1289 21 1161 -19 q 1294 54 1294 38 q 1289 90 1294 74 q 1127 69 1257 82 q 926 56 997 56 q 840 74 863 56 q 818 146 818 92 l 818 525 q 1176 550 1054 550 q 1183 582 1183 571 q 1175 622 1183 606 q 818 599 982 621 l 818 875 q 817 901 818 897 q 1128 919 949 919 q 1243 914 1206 919 q 1250 947 1250 935 q 1242 983 1250 967 q 1068 992 1179 992 q 744 967 875 992 z "},"B":{"ha":900,"x_min":49,"x_max":824,"o":"m 57 856 q 247 897 122 878 q 488 917 371 917 q 573 905 543 917 q 615 865 603 893 q 628 783 628 836 l 628 722 q 610 654 628 679 q 551 617 593 629 q 432 597 510 604 l 279 585 l 279 801 q 254 826 279 826 q 136 810 186 826 q 113 781 113 801 l 113 88 q 149 7 113 32 q 263 -18 185 -18 q 551 -8 417 -18 q 663 10 618 -3 q 749 44 707 22 q 824 174 824 83 l 824 406 q 790 531 824 490 q 664 583 757 571 l 664 586 q 794 688 794 617 l 794 803 q 773 917 794 876 q 703 974 751 957 q 567 990 654 990 q 54 925 288 990 q 49 892 49 913 q 57 856 49 871 m 388 56 q 301 74 324 56 q 279 146 279 92 l 279 515 q 560 538 540 538 q 638 503 618 538 q 657 386 657 469 l 657 181 q 603 81 657 106 q 388 56 547 56 z "},"C":{"ha":799,"x_min":97,"x_max":769,"o":"m 753 913 q 758 944 758 928 q 750 982 758 965 q 586 992 667 992 q 374 983 468 992 q 185 935 265 974 q 120 879 143 914 q 97 800 97 844 l 97 169 q 120 53 97 93 q 195 -4 143 13 q 343 -21 247 -21 q 763 33 588 -21 q 769 64 769 51 q 761 103 769 76 q 602 75 713 89 q 397 61 492 61 q 315 72 343 61 q 276 110 288 83 q 264 189 264 138 l 264 793 q 333 896 263 876 q 601 921 424 921 q 753 913 711 921 z "},"Ç":{"ha":799,"x_min":97,"x_max":769,"o":"m 481 -15 q 763 33 638 -6 q 769 64 769 51 q 761 103 769 76 q 602 75 713 89 q 397 61 492 61 q 315 72 343 61 q 276 110 288 83 q 264 189 264 138 l 264 793 q 333 896 263 876 q 601 921 424 921 q 753 913 711 921 q 758 944 758 928 q 750 982 758 965 q 586 992 667 992 q 374 983 468 992 q 185 935 265 974 q 120 879 143 914 q 97 800 97 844 l 97 169 q 119 55 97 96 q 189 -3 140 14 q 325 -21 238 -21 q 418 -19 388 -21 l 399 -92 l 399 -99 q 417 -112 399 -112 q 493 -164 493 -114 q 465 -210 493 -189 q 393 -237 438 -232 q 374 -251 374 -240 q 413 -315 374 -286 q 500 -288 458 -314 q 567 -226 542 -262 q 592 -153 592 -189 q 559 -87 592 -114 q 469 -57 526 -61 l 481 -15 z "},"D":{"ha":944,"x_min":85,"x_max":847,"o":"m 847 803 q 826 917 847 876 q 756 974 804 957 q 619 990 707 990 q 90 925 319 990 q 85 892 85 913 q 93 856 85 871 q 292 897 154 876 q 547 917 431 917 q 628 905 600 917 q 669 865 657 893 q 681 783 681 836 l 681 181 q 621 81 681 106 q 386 56 561 56 q 300 74 322 56 q 278 146 278 92 l 278 801 q 253 826 278 826 q 135 810 185 826 q 111 781 111 801 l 111 60 q 124 8 111 24 q 167 -13 138 -8 q 261 -18 197 -18 q 401 -17 364 -18 q 635 1 557 -14 q 792 57 749 21 q 833 108 818 78 q 847 174 847 138 l 847 803 z "},"Ð":{"ha":968,"x_min":-12,"x_max":871,"o":"m -6 581 q -12 549 -12 560 q -4 508 -12 525 q 135 513 64 508 l 135 60 q 167 -4 135 11 q 313 -18 199 -18 l 425 -17 q 658 0 578 -14 q 747 24 703 7 q 817 58 792 40 q 856 108 842 78 q 871 174 871 138 l 871 803 q 849 917 871 876 q 779 974 828 957 q 643 990 731 990 q 96 928 324 993 q 90 894 90 915 q 99 858 90 874 q 273 889 149 875 q 528 903 397 903 q 664 875 624 903 q 704 783 704 847 l 704 181 q 646 81 707 106 q 410 56 586 56 q 324 74 346 56 q 301 146 301 92 l 301 525 q 450 546 376 533 q 457 579 457 567 q 449 615 457 599 l 301 599 l 301 801 q 276 826 301 826 q 158 810 208 826 q 135 781 135 801 l 135 585 q -6 581 63 581 z "},"E":{"ha":782,"x_min":44,"x_max":760,"o":"m 642 550 q 649 582 649 571 q 640 622 649 606 q 283 599 447 621 l 283 875 q 282 901 283 897 q 593 919 414 919 q 708 914 671 919 q 715 947 715 935 q 707 983 715 967 q 517 992 632 992 q 50 928 264 992 q 44 894 44 915 q 53 858 44 874 l 101 861 q 117 785 117 861 l 117 88 q 153 7 117 32 q 267 -18 189 -18 l 328 -18 q 754 21 593 -18 q 760 54 760 42 q 754 90 760 67 q 592 69 722 82 q 392 56 463 56 q 306 74 328 56 q 283 146 283 92 l 283 525 q 642 550 518 550 z "},"É":{"ha":782,"x_min":44,"x_max":760,"o":"m 642 550 q 649 582 649 571 q 640 622 649 606 q 283 599 447 621 l 283 875 q 282 901 283 897 q 593 919 414 919 q 708 914 671 919 q 715 947 715 935 q 707 983 715 967 q 517 992 632 992 q 50 928 264 992 q 44 894 44 915 q 53 858 44 874 l 101 861 q 117 785 117 861 l 117 88 q 153 7 117 32 q 267 -18 189 -18 l 328 -18 q 754 21 593 -18 q 760 54 760 42 q 754 90 760 67 q 592 69 722 82 q 392 56 463 56 q 306 74 328 56 q 283 146 283 92 l 283 525 q 642 550 518 550 m 540 1275 q 368 1099 472 1196 q 363 1088 363 1094 q 376 1061 363 1078 q 400 1044 389 1044 q 457 1065 413 1042 q 610 1156 547 1111 q 640 1189 640 1176 q 611 1249 640 1213 q 563 1286 581 1286 q 540 1275 551 1286 z "},"Ê":{"ha":782,"x_min":44,"x_max":760,"o":"m 642 550 q 649 582 649 571 q 640 622 649 606 q 283 599 447 621 l 283 875 q 282 901 283 897 q 593 919 414 919 q 708 914 671 919 q 715 947 715 935 q 707 983 715 967 q 517 992 632 992 q 50 928 264 992 q 44 894 44 915 q 53 858 44 874 l 101 861 q 117 785 117 861 l 117 88 q 153 7 117 32 q 267 -18 189 -18 l 328 -18 q 754 21 593 -18 q 760 54 760 42 q 754 90 760 67 q 592 69 722 82 q 392 56 463 56 q 306 74 328 56 q 283 146 283 92 l 283 525 q 642 550 518 550 m 431 1283 q 383 1272 401 1283 l 215 1090 q 213 1086 213 1088 q 217 1076 213 1082 q 229 1064 221 1069 q 269 1046 258 1046 q 297 1061 278 1046 l 428 1169 l 561 1065 q 592 1049 585 1049 q 610 1053 597 1049 q 644 1071 632 1061 q 650 1081 649 1074 q 646 1093 651 1088 q 478 1272 569 1181 q 431 1283 467 1283 z "},"Ë":{"ha":782,"x_min":44,"x_max":760,"o":"m 642 550 q 649 582 649 571 q 640 622 649 606 q 283 599 447 621 l 283 875 q 282 901 283 897 q 593 919 414 919 q 708 914 671 919 q 715 947 715 935 q 707 983 715 967 q 517 992 632 992 q 50 928 264 992 q 44 894 44 915 q 53 858 44 874 l 101 861 q 117 785 117 861 l 117 88 q 153 7 117 32 q 267 -18 189 -18 l 328 -18 q 754 21 593 -18 q 760 54 760 42 q 754 90 760 67 q 592 69 722 82 q 392 56 463 56 q 306 74 328 56 q 283 146 283 92 l 283 525 q 642 550 518 550 m 251 1111 q 271 1076 251 1074 l 371 1082 q 392 1091 388 1083 q 397 1119 397 1099 l 397 1186 q 393 1220 397 1213 q 374 1228 389 1228 l 276 1222 q 256 1214 260 1221 q 251 1185 251 1207 l 251 1118 l 251 1111 m 497 1111 q 517 1076 497 1074 l 618 1082 q 638 1091 633 1083 q 643 1119 643 1099 l 643 1186 q 639 1219 643 1211 q 621 1228 635 1228 l 524 1222 q 502 1214 507 1221 q 497 1185 497 1207 l 497 1118 l 497 1111 z "},"È":{"ha":782,"x_min":44,"x_max":760,"o":"m 642 550 q 649 582 649 571 q 640 622 649 606 q 283 599 447 621 l 283 875 q 282 901 283 897 q 593 919 414 919 q 708 914 671 919 q 715 947 715 935 q 707 983 715 967 q 517 992 632 992 q 50 928 264 992 q 44 894 44 915 q 53 858 44 874 l 101 861 q 117 785 117 861 l 117 88 q 153 7 117 32 q 267 -18 189 -18 l 328 -18 q 754 21 593 -18 q 760 54 760 42 q 754 90 760 67 q 592 69 722 82 q 392 56 463 56 q 306 74 328 56 q 283 146 283 92 l 283 525 q 642 550 518 550 m 324 1274 q 301 1285 313 1285 q 253 1249 283 1285 q 232 1216 240 1235 q 224 1188 224 1197 q 250 1157 224 1174 q 314 1115 282 1135 q 450 1044 385 1069 q 463 1043 454 1043 q 481 1051 472 1043 q 495 1069 489 1058 q 501 1088 501 1081 q 496 1097 501 1093 q 324 1274 392 1194 z "},"F":{"ha":713,"x_min":21,"x_max":717,"o":"m 581 550 q 588 582 588 571 q 579 622 588 606 q 285 607 419 621 l 285 875 q 283 901 285 897 q 594 919 415 919 q 710 914 681 919 q 717 947 717 935 q 708 983 717 967 q 518 992 633 992 q 51 928 260 992 q 46 894 46 915 q 54 858 46 874 l 103 861 q 118 785 118 861 l 118 -153 q 98 -226 118 -206 q 26 -250 78 -247 q 21 -281 21 -262 q 28 -317 21 -300 q 171 -306 113 -318 q 259 -258 233 -292 q 285 -158 285 -225 l 285 532 q 581 550 449 550 z "},"G":{"ha":900,"x_min":97,"x_max":836,"o":"m 751 644 q 553 636 674 644 q 399 618 433 628 q 394 594 394 606 q 400 568 394 578 l 653 571 q 668 494 668 571 l 668 181 q 649 109 668 133 q 578 71 631 85 q 399 56 519 56 q 317 67 346 56 q 277 108 289 79 q 265 189 265 136 l 265 793 q 335 896 264 876 q 596 922 418 919 q 768 913 725 919 q 774 944 774 928 q 765 982 774 965 q 588 992 682 992 q 487 990 532 992 q 388 985 442 989 q 280 968 326 979 q 190 936 233 957 q 122 879 146 915 q 99 800 99 843 l 99 169 q 118 58 97 99 q 187 0 139 18 q 319 -18 235 -18 q 715 25 594 -18 q 835 174 835 69 l 835 585 q 830 625 836 613 q 807 641 824 638 q 751 644 790 644 z "},"H":{"ha":990,"x_min":18,"x_max":971,"o":"m 293 508 q 696 540 510 510 l 696 42 q 701 1 694 13 q 726 -15 707 -11 q 789 -18 744 -18 q 967 8 875 -18 q 971 32 971 21 q 965 58 971 49 l 878 56 q 863 132 863 56 l 863 931 q 858 972 864 960 q 833 987 851 983 q 769 990 814 990 q 592 964 683 990 q 588 940 588 951 q 593 914 588 924 l 681 917 q 696 840 696 917 l 696 613 q 293 581 435 583 l 293 931 q 288 972 294 960 q 263 987 282 983 q 200 990 244 990 q 22 964 114 990 q 18 940 18 951 q 24 914 18 924 l 111 917 q 126 840 126 917 l 126 42 q 131 1 125 13 q 156 -15 138 -11 q 219 -18 175 -18 q 397 8 306 -18 q 401 32 401 21 q 396 58 401 49 l 308 56 q 293 132 293 56 l 293 508 z "},"I":{"ha":421,"x_min":18,"x_max":401,"o":"m 293 931 q 288 972 294 960 q 263 987 282 983 q 200 990 244 990 q 22 964 114 990 q 18 940 18 951 q 24 914 18 924 l 111 917 q 126 840 126 917 l 126 42 q 131 1 125 13 q 156 -15 138 -11 q 219 -18 175 -18 q 397 8 306 -18 q 401 32 401 21 q 396 58 401 49 l 308 56 q 293 132 293 56 l 293 931 z "},"Í":{"ha":421,"x_min":18,"x_max":401,"o":"m 293 931 q 288 972 294 960 q 263 987 282 983 q 200 990 244 990 q 22 964 114 990 q 18 940 18 951 q 24 914 18 924 l 111 917 q 126 840 126 917 l 126 42 q 131 1 125 13 q 156 -15 138 -11 q 219 -18 175 -18 q 397 8 306 -18 q 401 32 401 21 q 396 58 401 49 l 308 56 q 293 132 293 56 l 293 931 m 290 1275 q 118 1099 222 1196 q 113 1088 113 1094 q 126 1061 113 1078 q 150 1044 139 1044 q 207 1065 163 1042 q 360 1156 297 1111 q 390 1189 390 1176 q 361 1249 390 1213 q 313 1286 331 1286 q 290 1275 301 1286 z "},"Î":{"ha":421,"x_min":-49,"x_max":401,"o":"m 293 931 q 288 972 294 960 q 263 987 282 983 q 200 990 244 990 q 22 964 114 990 q 18 940 18 951 q 24 914 18 924 l 111 917 q 126 840 126 917 l 126 42 q 131 1 125 13 q 156 -15 138 -11 q 219 -18 175 -18 q 397 8 306 -18 q 401 32 401 21 q 396 58 401 49 l 308 56 q 293 132 293 56 l 293 931 m 169 1283 q 122 1272 140 1283 l -46 1090 q -49 1086 -49 1088 q -44 1076 -49 1082 q -32 1064 -40 1069 q 8 1046 -3 1046 q 36 1061 17 1046 l 167 1169 l 300 1065 q 331 1049 324 1049 q 349 1053 336 1049 q 383 1071 371 1061 q 389 1081 388 1074 q 385 1093 390 1088 q 217 1272 308 1181 q 169 1283 206 1283 z "},"Ï":{"ha":421,"x_min":-7,"x_max":401,"o":"m 293 931 q 288 972 294 960 q 263 987 282 983 q 200 990 244 990 q 22 964 114 990 q 18 940 18 951 q 24 914 18 924 l 111 917 q 126 840 126 917 l 126 42 q 131 1 125 13 q 156 -15 138 -11 q 219 -18 175 -18 q 397 8 306 -18 q 401 32 401 21 q 396 58 401 49 l 308 56 q 293 132 293 56 l 293 931 m -7 1111 q 13 1076 -7 1074 l 113 1082 q 134 1091 129 1083 q 139 1119 139 1099 l 139 1186 q 135 1220 139 1213 q 115 1228 131 1228 l 18 1222 q -3 1214 1 1221 q -7 1185 -7 1207 l -7 1118 l -7 1111 m 239 1111 q 258 1076 239 1074 l 360 1082 q 380 1091 375 1083 q 385 1119 385 1099 l 385 1186 q 381 1219 385 1211 q 363 1228 376 1228 l 265 1222 q 244 1214 249 1221 q 239 1185 239 1207 l 239 1118 l 239 1111 z "},"Ì":{"ha":421,"x_min":-25,"x_max":401,"o":"m 293 931 q 288 972 294 960 q 263 987 282 983 q 200 990 244 990 q 22 964 114 990 q 18 940 18 951 q 24 914 18 924 l 111 917 q 126 840 126 917 l 126 42 q 131 1 125 13 q 156 -15 138 -11 q 219 -18 175 -18 q 397 8 306 -18 q 401 32 401 21 q 396 58 401 49 l 308 56 q 293 132 293 56 l 293 931 m 75 1274 q 53 1285 64 1285 q 4 1249 35 1285 q -17 1216 -8 1235 q -25 1188 -25 1197 q 1 1157 -25 1174 q 65 1115 33 1135 q 201 1044 136 1069 q 214 1043 206 1043 q 232 1051 224 1043 q 247 1069 240 1058 q 253 1088 253 1081 q 247 1097 253 1093 q 75 1274 143 1194 z "},"J":{"ha":396,"x_min":-22,"x_max":294,"o":"m -14 -318 q 164 -304 79 -318 q 263 -254 232 -289 q 293 -158 293 -219 l 293 931 q 288 972 294 960 q 263 987 282 983 q 200 990 244 990 q 22 964 114 990 q 18 940 18 951 q 24 914 18 924 l 111 917 q 126 840 126 917 l 126 -153 q 106 -223 126 -203 q 28 -250 86 -243 l -15 -253 q -22 -282 -22 -264 q -18 -303 -22 -289 l -14 -318 z "},"K":{"ha":940,"x_min":18,"x_max":944,"o":"m 940 8 q 944 32 944 21 q 939 58 944 49 l 851 56 q 833 64 840 56 q 814 97 826 71 l 614 544 q 765 696 765 563 l 765 844 q 781 929 765 911 l 879 940 q 885 968 885 957 q 881 990 885 981 q 681 981 733 990 q 624 940 639 972 q 610 838 610 907 l 610 701 q 601 650 610 668 q 573 623 593 632 q 511 606 553 614 q 293 582 435 589 l 293 931 q 288 972 294 960 q 263 987 282 983 q 200 990 244 990 q 22 964 114 990 q 18 940 18 951 q 24 914 18 924 l 111 917 q 126 840 126 917 l 126 42 q 131 1 125 13 q 156 -15 138 -11 q 219 -18 175 -18 q 397 8 306 -18 q 401 32 401 21 q 396 58 401 49 l 308 56 q 293 132 293 56 l 293 515 q 439 525 358 518 l 656 42 q 678 -2 669 8 q 703 -15 688 -12 q 763 -18 718 -18 q 940 8 849 -18 z "},"L":{"ha":735,"x_min":18,"x_max":738,"o":"m 731 40 q 738 78 738 57 q 728 118 738 104 q 401 67 560 68 q 310 74 328 67 q 293 104 293 81 l 293 931 q 288 972 294 960 q 263 987 282 983 q 200 990 244 990 q 22 964 114 990 q 18 940 18 951 q 24 914 18 924 l 111 917 q 126 840 126 917 l 126 88 q 163 7 126 32 q 276 -18 199 -18 q 731 40 531 -18 z "},"M":{"ha":1419,"x_min":18,"x_max":1401,"o":"m 793 853 q 1011 899 933 899 q 1083 892 1058 899 q 1117 865 1107 885 q 1126 808 1126 846 l 1126 42 q 1131 1 1125 13 q 1156 -15 1138 -11 q 1219 -18 1175 -18 q 1397 8 1306 -18 q 1401 32 1401 21 q 1396 58 1401 49 l 1308 56 q 1293 132 1293 56 l 1293 885 q 1257 965 1293 940 q 1143 990 1221 990 q 789 919 971 989 q 650 990 771 990 q 293 922 468 990 l 293 931 q 288 972 294 960 q 263 987 282 983 q 200 990 244 990 q 22 964 114 990 q 18 940 18 951 q 24 914 18 924 l 111 917 q 126 840 126 917 l 126 42 q 131 1 125 13 q 156 -15 138 -11 q 219 -18 175 -18 q 397 8 306 -18 q 401 32 401 21 q 396 58 401 49 l 308 56 q 293 132 293 56 l 293 853 q 511 899 433 899 q 583 892 558 899 q 617 865 607 885 q 626 808 626 846 l 626 42 q 631 1 625 13 q 656 -15 638 -11 q 719 -18 675 -18 q 897 8 806 -18 q 901 32 901 21 q 896 58 901 49 l 808 56 q 793 132 793 56 l 793 853 z "},"N":{"ha":964,"x_min":18,"x_max":946,"o":"m 838 885 q 801 965 838 940 q 688 990 765 990 q 293 922 485 990 l 293 931 q 288 972 294 960 q 263 987 282 983 q 200 990 244 990 q 22 964 114 990 q 18 940 18 951 q 24 914 18 924 l 111 917 q 126 840 126 917 l 126 42 q 131 1 125 13 q 156 -15 138 -11 q 219 -18 175 -18 q 397 8 306 -18 q 401 32 401 21 q 396 58 401 49 l 308 56 q 293 132 293 56 l 293 853 q 563 899 463 899 q 649 881 626 899 q 671 808 671 863 l 671 42 q 676 1 669 13 q 701 -15 682 -11 q 764 -18 719 -18 q 942 8 850 -18 q 946 32 946 21 q 940 58 946 49 l 853 56 q 838 132 838 56 l 838 885 z "},"Ñ":{"ha":964,"x_min":18,"x_max":946,"o":"m 838 885 q 801 965 838 940 q 688 990 765 990 q 293 922 485 990 l 293 931 q 288 972 294 960 q 263 987 282 983 q 200 990 244 990 q 22 964 114 990 q 18 940 18 951 q 24 914 18 924 l 111 917 q 126 840 126 917 l 126 42 q 131 1 125 13 q 156 -15 138 -11 q 219 -18 175 -18 q 397 8 306 -18 q 401 32 401 21 q 396 58 401 49 l 308 56 q 293 132 293 56 l 293 853 q 563 899 463 899 q 649 881 626 899 q 671 808 671 863 l 671 42 q 676 1 669 13 q 701 -15 682 -11 q 764 -18 719 -18 q 942 8 850 -18 q 946 32 946 21 q 940 58 946 49 l 853 56 q 838 132 838 56 l 838 885 m 329 1101 q 350 1122 338 1113 q 410 1146 376 1146 q 489 1110 440 1146 q 575 1072 538 1072 q 682 1114 631 1072 q 713 1148 701 1131 q 725 1178 725 1165 q 716 1208 726 1193 q 696 1222 706 1222 q 676 1208 689 1222 q 597 1172 640 1172 q 514 1207 565 1172 q 415 1242 463 1242 q 364 1230 390 1242 q 317 1200 338 1218 q 280 1159 294 1181 q 265 1119 265 1138 q 281 1094 265 1113 q 292 1083 286 1088 q 301 1078 297 1078 q 311 1082 307 1078 l 329 1101 z "},"O":{"ha":931,"x_min":97,"x_max":833,"o":"m 97 169 q 118 56 97 96 q 188 -1 139 15 q 325 -18 238 -18 q 713 25 593 -18 q 833 174 833 67 l 833 804 q 813 918 833 878 q 743 975 792 958 q 606 992 694 992 q 218 950 339 992 q 97 800 97 907 l 97 169 m 667 181 q 647 107 667 132 q 571 69 626 82 q 397 56 515 56 q 316 67 344 56 q 276 108 288 79 q 264 189 264 136 l 264 793 q 284 867 263 840 q 361 906 306 893 q 533 918 418 918 q 615 906 586 918 q 655 866 643 894 q 667 785 667 838 l 667 181 z "},"Ó":{"ha":931,"x_min":97,"x_max":833,"o":"m 97 169 q 118 56 97 96 q 188 -1 139 15 q 325 -18 238 -18 q 713 25 593 -18 q 833 174 833 67 l 833 804 q 813 918 833 878 q 743 975 792 958 q 606 992 694 992 q 218 950 339 992 q 97 800 97 907 l 97 169 m 667 181 q 647 107 667 132 q 571 69 626 82 q 397 56 515 56 q 316 67 344 56 q 276 108 288 79 q 264 189 264 136 l 264 793 q 284 867 263 840 q 361 906 306 893 q 533 918 418 918 q 615 906 586 918 q 655 866 643 894 q 667 785 667 838 l 667 181 m 588 1275 q 415 1099 519 1196 q 410 1088 410 1094 q 423 1061 410 1078 q 447 1044 436 1044 q 504 1065 460 1042 q 657 1156 594 1111 q 688 1189 688 1176 q 658 1249 688 1213 q 610 1286 628 1286 q 588 1275 599 1286 z "},"Ô":{"ha":931,"x_min":97,"x_max":833,"o":"m 97 169 q 118 56 97 96 q 188 -1 139 15 q 325 -18 238 -18 q 713 25 593 -18 q 833 174 833 67 l 833 804 q 813 918 833 878 q 743 975 792 958 q 606 992 694 992 q 218 950 339 992 q 97 800 97 907 l 97 169 m 667 181 q 647 107 667 132 q 571 69 626 82 q 397 56 515 56 q 316 67 344 56 q 276 108 288 79 q 264 189 264 136 l 264 793 q 284 867 263 840 q 361 906 306 893 q 533 918 418 918 q 615 906 586 918 q 655 866 643 894 q 667 785 667 838 l 667 181 m 464 1283 q 417 1272 435 1283 l 249 1090 q 246 1086 246 1088 q 250 1076 246 1082 q 263 1064 254 1069 q 303 1046 292 1046 q 331 1061 311 1046 l 461 1169 l 594 1065 q 625 1049 618 1049 q 643 1053 631 1049 q 678 1071 665 1061 q 683 1081 682 1074 q 679 1093 685 1088 q 511 1272 603 1181 q 464 1283 500 1283 z "},"Ö":{"ha":931,"x_min":97,"x_max":833,"o":"m 97 169 q 118 56 97 96 q 188 -1 139 15 q 325 -18 238 -18 q 713 25 593 -18 q 833 174 833 67 l 833 804 q 813 918 833 878 q 743 975 792 958 q 606 992 694 992 q 218 950 339 992 q 97 800 97 907 l 97 169 m 667 181 q 647 107 667 132 q 571 69 626 82 q 397 56 515 56 q 316 67 344 56 q 276 108 288 79 q 264 189 264 136 l 264 793 q 284 867 263 840 q 361 906 306 893 q 533 918 418 918 q 615 906 586 918 q 655 866 643 894 q 667 785 667 838 l 667 181 m 269 1111 q 289 1076 269 1074 l 389 1082 q 410 1091 406 1083 q 415 1119 415 1099 l 415 1186 q 411 1220 415 1213 q 392 1228 407 1228 l 294 1222 q 274 1214 278 1221 q 269 1185 269 1207 l 269 1118 l 269 1111 m 515 1111 q 535 1076 515 1074 l 636 1082 q 656 1091 651 1083 q 661 1119 661 1099 l 661 1186 q 657 1219 661 1211 q 639 1228 653 1228 l 542 1222 q 520 1214 525 1221 q 515 1185 515 1207 l 515 1118 l 515 1111 z "},"Ò":{"ha":931,"x_min":97,"x_max":833,"o":"m 97 169 q 118 56 97 96 q 188 -1 139 15 q 325 -18 238 -18 q 713 25 593 -18 q 833 174 833 67 l 833 804 q 813 918 833 878 q 743 975 792 958 q 606 992 694 992 q 218 950 339 992 q 97 800 97 907 l 97 169 m 667 181 q 647 107 667 132 q 571 69 626 82 q 397 56 515 56 q 316 67 344 56 q 276 108 288 79 q 264 189 264 136 l 264 793 q 284 867 263 840 q 361 906 306 893 q 533 918 418 918 q 615 906 586 918 q 655 866 643 894 q 667 785 667 838 l 667 181 m 343 1274 q 321 1285 332 1285 q 272 1249 303 1285 q 251 1216 260 1235 q 243 1188 243 1197 q 269 1157 243 1174 q 333 1115 301 1135 q 469 1044 404 1069 q 482 1043 474 1043 q 500 1051 492 1043 q 515 1069 508 1058 q 521 1088 521 1081 q 515 1097 521 1093 q 343 1274 411 1194 z "},"Ø":{"ha":931,"x_min":31,"x_max":892,"o":"m 97 169 q 103 100 97 124 l 31 13 q 104 -21 50 -21 l 142 25 q 325 -18 189 -18 q 713 25 593 -18 q 833 174 833 67 l 833 804 q 826 878 833 839 l 892 957 q 818 990 863 990 l 785 950 q 606 992 738 992 q 218 950 339 992 q 97 800 97 907 l 97 169 m 264 793 q 282 865 264 842 q 358 903 300 888 q 533 918 422 918 q 638 891 610 918 q 667 789 665 864 l 264 304 l 264 793 m 667 181 q 649 109 667 132 q 574 71 632 86 q 397 56 510 56 q 293 82 321 56 q 264 182 265 108 l 667 669 l 667 181 z "},"Õ":{"ha":931,"x_min":97,"x_max":833,"o":"m 97 169 q 118 56 97 96 q 188 -1 139 15 q 325 -18 238 -18 q 713 25 593 -18 q 833 174 833 67 l 833 804 q 813 918 833 878 q 743 975 792 958 q 606 992 694 992 q 218 950 339 992 q 97 800 97 907 l 97 169 m 667 181 q 647 107 667 132 q 571 69 626 82 q 397 56 515 56 q 316 67 344 56 q 276 108 288 79 q 264 189 264 136 l 264 793 q 284 867 263 840 q 361 906 306 893 q 533 918 418 918 q 615 906 586 918 q 655 866 643 894 q 667 785 667 838 l 667 181 m 299 1101 q 319 1122 307 1113 q 379 1146 346 1146 q 458 1110 410 1146 q 544 1072 507 1072 q 651 1114 600 1072 q 683 1148 671 1131 q 694 1178 694 1165 q 685 1208 696 1193 q 665 1222 675 1222 q 646 1208 658 1222 q 567 1172 610 1172 q 483 1207 535 1172 q 385 1242 432 1242 q 333 1230 360 1242 q 286 1200 307 1218 q 249 1159 264 1181 q 235 1119 235 1138 q 250 1094 235 1113 q 261 1083 256 1088 q 271 1078 267 1078 q 281 1082 276 1078 l 299 1101 z "},"Œ":{"ha":1332,"x_min":97,"x_max":1310,"o":"m 97 169 q 119 56 97 96 q 189 -1 140 15 q 325 -18 238 -18 q 689 17 567 -18 q 817 -18 724 -18 l 878 -18 q 1304 21 1174 -18 q 1310 54 1310 38 q 1304 90 1310 72 q 1142 69 1272 82 q 942 56 1013 56 q 856 74 878 56 q 833 146 833 92 l 833 525 q 1192 550 1068 550 q 1199 582 1199 571 q 1190 622 1199 606 q 833 599 997 621 l 833 875 q 832 901 833 897 q 1143 919 964 919 q 1258 914 1221 919 q 1265 947 1265 935 q 1257 983 1265 967 q 1083 992 1171 992 q 761 967 903 992 q 606 992 711 992 q 218 950 339 992 q 97 800 97 907 l 97 169 m 667 181 q 649 109 667 132 q 574 71 632 86 q 397 56 510 56 q 316 67 344 56 q 276 108 288 79 q 264 189 264 136 l 264 793 q 282 865 264 842 q 358 903 300 888 q 533 918 422 918 q 615 906 586 918 q 655 866 643 894 q 667 785 667 838 l 667 181 z "},"P":{"ha":797,"x_min":39,"x_max":756,"o":"m 260 826 q 142 810 192 826 q 118 781 118 801 l 118 42 q 123 1 117 13 q 148 -15 129 -11 q 211 -18 167 -18 q 389 8 297 -18 q 393 32 393 21 q 388 58 393 49 l 300 56 q 285 132 285 56 l 285 425 q 626 458 456 431 q 725 508 694 474 q 756 604 756 543 l 756 803 q 733 918 756 878 q 658 974 710 958 q 511 990 606 990 q 44 925 258 990 q 39 892 39 913 q 47 856 39 871 q 456 917 239 915 q 537 905 508 917 q 577 865 565 893 q 589 783 589 836 l 589 610 q 581 558 589 576 q 552 531 572 540 q 490 514 532 522 q 285 490 407 499 l 285 801 q 260 826 285 826 z "},"Þ":{"ha":821,"x_min":18,"x_max":764,"o":"m 764 594 q 742 708 764 668 q 672 765 721 749 q 536 782 624 782 q 293 771 429 782 l 293 931 q 288 972 294 960 q 263 987 282 983 q 200 990 244 990 q 22 964 114 990 q 18 940 18 951 q 24 914 18 924 l 111 917 q 126 840 126 917 l 126 42 q 131 1 125 13 q 156 -15 138 -11 q 219 -18 175 -18 q 397 8 306 -18 q 401 32 401 21 q 396 58 401 49 l 308 56 q 293 132 293 56 l 293 217 q 635 250 464 224 q 733 300 703 265 q 764 396 764 335 l 764 594 m 293 697 q 464 708 389 708 q 545 697 517 708 q 585 656 574 685 q 597 575 597 628 l 597 401 q 589 350 597 368 q 560 322 581 332 q 499 304 540 313 q 293 282 436 290 l 293 697 z "},"Q":{"ha":936,"x_min":99,"x_max":835,"o":"m 835 804 q 813 918 835 878 q 743 975 792 958 q 607 992 694 992 q 219 950 340 992 q 99 800 99 907 l 99 88 q 135 7 99 32 q 249 -18 171 -18 q 668 50 464 -18 l 668 -292 q 693 -317 668 -317 q 811 -300 761 -317 q 835 -271 835 -292 l 835 804 m 265 793 q 283 865 265 842 q 360 903 301 888 q 535 918 424 918 q 616 906 588 918 q 656 866 644 894 q 668 785 668 838 l 668 119 q 374 74 483 74 q 288 92 310 74 q 265 164 265 110 l 265 793 z "},"R":{"ha":917,"x_min":38,"x_max":944,"o":"m 46 856 q 245 897 107 876 q 500 917 383 917 q 581 905 553 917 q 622 865 610 893 q 633 783 633 836 l 633 661 q 625 610 633 628 q 597 583 617 592 q 535 565 576 574 q 286 540 442 547 l 286 801 q 261 826 286 826 q 143 810 193 826 q 119 781 119 801 l 119 42 q 124 1 118 13 q 149 -15 131 -11 q 213 -18 168 -18 q 390 8 299 -18 q 394 32 394 21 q 389 58 394 49 l 301 56 q 286 132 286 56 l 286 475 q 449 483 340 475 l 647 42 q 669 0 660 11 q 695 -15 678 -11 q 754 -18 713 -18 q 940 8 849 -18 q 944 31 944 19 q 939 58 944 42 l 843 56 q 826 63 833 56 q 813 82 818 71 l 806 96 q 789 132 801 103 l 622 503 q 671 510 671 510 q 769 560 739 525 q 800 656 800 594 l 800 803 q 778 917 800 876 q 708 974 757 957 q 572 990 660 990 q 43 925 272 990 q 38 892 38 913 q 46 856 38 871 z "},"S":{"ha":676,"x_min":33,"x_max":639,"o":"m 229 847 q 272 901 229 883 q 422 919 314 919 q 593 903 522 919 q 601 947 601 924 q 597 981 601 964 q 414 992 489 992 q 57 847 57 992 q 104 703 56 779 l 393 272 q 458 132 458 171 q 415 68 458 82 q 235 53 369 53 q 40 67 139 53 q 33 31 33 46 q 42 -10 33 10 q 297 -22 221 -22 q 639 135 632 -22 q 635 174 639 153 q 615 223 629 194 q 597 260 601 251 q 542 344 576 293 q 493 417 508 394 l 297 703 q 229 847 229 804 z "},"T":{"ha":750,"x_min":-6,"x_max":725,"o":"m 717 981 q 465 992 597 992 q 0 939 200 992 q -6 903 -6 914 q 3 864 -6 883 q 285 904 122 892 l 285 42 q 290 1 283 13 q 315 -15 296 -11 q 378 -18 333 -18 q 556 8 464 -18 q 560 32 560 21 q 554 58 560 49 l 467 56 q 451 132 451 56 l 451 915 q 719 904 608 917 q 725 940 725 919 q 717 981 725 967 z "},"U":{"ha":965,"x_min":18,"x_max":946,"o":"m 813 990 q 694 974 744 990 q 671 944 671 965 l 671 119 q 401 74 503 74 q 315 92 338 74 q 293 164 293 110 l 293 931 q 288 972 294 960 q 263 987 282 983 q 200 990 244 990 q 22 964 114 990 q 18 940 18 951 q 24 914 18 924 l 111 917 q 126 840 126 917 l 126 88 q 163 7 126 32 q 276 -18 199 -18 q 671 50 479 -18 l 671 42 q 676 1 669 13 q 701 -15 682 -11 q 764 -18 719 -18 q 942 8 850 -18 q 946 32 946 21 q 940 58 946 49 l 853 56 q 838 132 838 56 l 838 965 q 813 990 838 990 z "},"Ú":{"ha":965,"x_min":18,"x_max":946,"o":"m 813 990 q 694 974 744 990 q 671 944 671 965 l 671 119 q 401 74 503 74 q 315 92 338 74 q 293 164 293 110 l 293 931 q 288 972 294 960 q 263 987 282 983 q 200 990 244 990 q 22 964 114 990 q 18 940 18 951 q 24 914 18 924 l 111 917 q 126 840 126 917 l 126 88 q 163 7 126 32 q 276 -18 199 -18 q 671 50 479 -18 l 671 42 q 676 1 669 13 q 701 -15 682 -11 q 764 -18 719 -18 q 942 8 850 -18 q 946 32 946 21 q 940 58 946 49 l 853 56 q 838 132 838 56 l 838 965 q 813 990 838 990 m 576 1275 q 404 1099 508 1196 q 399 1088 399 1094 q 412 1061 399 1078 q 436 1044 425 1044 q 493 1065 449 1042 q 646 1156 583 1111 q 676 1189 676 1176 q 647 1249 676 1213 q 599 1286 617 1286 q 576 1275 588 1286 z "},"Û":{"ha":965,"x_min":18,"x_max":946,"o":"m 813 990 q 694 974 744 990 q 671 944 671 965 l 671 119 q 401 74 503 74 q 315 92 338 74 q 293 164 293 110 l 293 931 q 288 972 294 960 q 263 987 282 983 q 200 990 244 990 q 22 964 114 990 q 18 940 18 951 q 24 914 18 924 l 111 917 q 126 840 126 917 l 126 88 q 163 7 126 32 q 276 -18 199 -18 q 671 50 479 -18 l 671 42 q 676 1 669 13 q 701 -15 682 -11 q 764 -18 719 -18 q 942 8 850 -18 q 946 32 946 21 q 940 58 946 49 l 853 56 q 838 132 838 56 l 838 965 q 813 990 838 990 m 481 1283 q 433 1272 451 1283 l 265 1090 q 263 1086 263 1088 q 267 1076 263 1082 q 279 1064 271 1069 q 319 1046 308 1046 q 347 1061 328 1046 l 478 1169 l 611 1065 q 642 1049 635 1049 q 660 1053 647 1049 q 694 1071 682 1061 q 700 1081 699 1074 q 696 1093 701 1088 q 528 1272 619 1181 q 481 1283 517 1283 z "},"Ü":{"ha":965,"x_min":18,"x_max":946,"o":"m 813 990 q 694 974 744 990 q 671 944 671 965 l 671 119 q 401 74 503 74 q 315 92 338 74 q 293 164 293 110 l 293 931 q 288 972 294 960 q 263 987 282 983 q 200 990 244 990 q 22 964 114 990 q 18 940 18 951 q 24 914 18 924 l 111 917 q 126 840 126 917 l 126 88 q 163 7 126 32 q 276 -18 199 -18 q 671 50 479 -18 l 671 42 q 676 1 669 13 q 701 -15 682 -11 q 764 -18 719 -18 q 942 8 850 -18 q 946 32 946 21 q 940 58 946 49 l 853 56 q 838 132 838 56 l 838 965 q 813 990 838 990 m 288 1111 q 307 1076 288 1074 l 407 1082 q 428 1091 424 1083 q 433 1119 433 1099 l 433 1186 q 429 1220 433 1213 q 410 1228 425 1228 l 313 1222 q 292 1214 296 1221 q 288 1185 288 1207 l 288 1118 l 288 1111 m 533 1111 q 553 1076 533 1074 l 654 1082 q 674 1091 669 1083 q 679 1119 679 1099 l 679 1186 q 675 1219 679 1211 q 657 1228 671 1228 l 560 1222 q 538 1214 543 1221 q 533 1185 533 1207 l 533 1118 l 533 1111 z "},"Ù":{"ha":965,"x_min":18,"x_max":946,"o":"m 813 990 q 694 974 744 990 q 671 944 671 965 l 671 119 q 401 74 503 74 q 315 92 338 74 q 293 164 293 110 l 293 931 q 288 972 294 960 q 263 987 282 983 q 200 990 244 990 q 22 964 114 990 q 18 940 18 951 q 24 914 18 924 l 111 917 q 126 840 126 917 l 126 88 q 163 7 126 32 q 276 -18 199 -18 q 671 50 479 -18 l 671 42 q 676 1 669 13 q 701 -15 682 -11 q 764 -18 719 -18 q 942 8 850 -18 q 946 32 946 21 q 940 58 946 49 l 853 56 q 838 132 838 56 l 838 965 q 813 990 838 990 m 374 1274 q 351 1285 363 1285 q 303 1249 333 1285 q 282 1216 290 1235 q 274 1188 274 1197 q 300 1157 274 1174 q 364 1115 332 1135 q 500 1044 435 1069 q 513 1043 504 1043 q 531 1051 522 1043 q 545 1069 539 1058 q 551 1088 551 1081 q 546 1097 551 1093 q 374 1274 442 1194 z "},"V":{"ha":936,"x_min":18,"x_max":838,"o":"m 838 931 q 836 963 838 954 q 796 989 832 985 q 744 990 783 990 q 567 964 660 990 q 563 940 563 951 q 568 914 563 924 l 656 917 q 667 901 663 917 q 671 840 671 888 l 671 181 q 617 81 671 106 q 401 56 561 56 q 315 74 338 56 q 293 146 293 92 l 293 931 q 288 972 294 960 q 263 987 282 983 q 200 990 244 990 q 22 964 114 990 q 18 940 18 951 q 24 914 18 924 l 111 917 q 126 840 126 917 l 126 60 q 160 -6 126 10 q 299 -18 188 -18 l 411 -17 q 635 1 558 -14 q 785 57 740 19 q 838 174 838 100 l 838 931 z "},"W":{"ha":1328,"x_min":17,"x_max":1228,"o":"m 1228 931 q 1226 963 1228 954 q 1186 989 1222 985 q 1135 990 1174 990 q 957 964 1050 990 q 953 940 953 951 q 958 914 953 924 l 1046 917 q 1057 901 1053 917 q 1061 840 1061 888 l 1061 181 q 1053 117 1061 140 q 1026 81 1046 93 q 965 61 1004 67 q 858 56 925 56 q 772 72 794 56 q 750 146 750 89 l 750 931 q 749 963 750 954 q 708 989 744 985 q 657 990 696 990 q 479 964 572 990 q 475 940 475 951 q 481 914 475 924 l 568 917 q 579 901 575 917 q 583 840 583 888 l 583 108 q 371 65 494 65 q 308 88 324 65 q 292 172 292 111 l 292 931 q 290 963 292 954 q 250 989 286 985 q 199 990 238 990 q 21 964 114 990 q 17 940 17 951 q 22 914 17 924 l 110 917 q 121 901 117 917 q 125 840 125 888 l 125 135 q 135 60 125 89 q 168 15 146 32 q 228 -9 190 -1 q 325 -17 265 -17 q 472 0 400 -17 q 603 43 544 17 q 760 -18 644 -18 q 964 -11 881 -18 q 1103 15 1047 -4 q 1197 74 1165 36 q 1228 174 1228 111 l 1228 931 z "},"X":{"ha":846,"x_min":-11,"x_max":860,"o":"m 297 931 q 271 972 282 960 q 240 987 260 983 q 179 990 221 990 q -7 964 85 990 q -11 942 -11 954 q -6 914 -11 931 l 90 917 q 156 840 121 917 l 333 478 l 54 -10 q 103 -21 74 -21 q 151 -11 126 -21 l 379 385 l 549 42 q 572 1 561 13 q 604 -15 583 -11 q 669 -18 625 -18 q 856 8 764 -18 q 860 31 860 19 q 854 58 860 42 l 758 56 q 728 74 742 56 q 690 132 714 90 l 507 504 l 779 979 q 731 990 760 990 q 682 981 707 990 l 461 597 l 297 931 z "},"Y":{"ha":940,"x_min":18,"x_max":838,"o":"m 168 -254 q 163 -292 163 -272 q 171 -326 163 -312 q 335 -333 243 -333 q 704 -294 571 -333 q 838 -142 838 -256 l 838 965 q 813 990 838 990 q 694 974 744 990 q 671 944 671 965 l 671 119 q 401 74 503 74 q 315 92 338 74 q 293 164 293 110 l 293 931 q 288 972 294 960 q 263 987 282 983 q 200 990 244 990 q 22 964 114 990 q 18 940 18 951 q 24 914 18 924 l 111 917 q 126 840 126 917 l 126 88 q 163 7 126 32 q 276 -18 199 -18 q 671 50 479 -18 l 671 -135 q 601 -232 672 -217 q 324 -262 461 -262 q 168 -254 247 -262 z "},"Ý":{"ha":940,"x_min":18,"x_max":838,"o":"m 168 -254 q 163 -292 163 -272 q 171 -326 163 -312 q 335 -333 243 -333 q 704 -294 571 -333 q 838 -142 838 -256 l 838 965 q 813 990 838 990 q 694 974 744 990 q 671 944 671 965 l 671 119 q 401 74 503 74 q 315 92 338 74 q 293 164 293 110 l 293 931 q 288 972 294 960 q 263 987 282 983 q 200 990 244 990 q 22 964 114 990 q 18 940 18 951 q 24 914 18 924 l 111 917 q 126 840 126 917 l 126 88 q 163 7 126 32 q 276 -18 199 -18 q 671 50 479 -18 l 671 -135 q 601 -232 672 -217 q 324 -262 461 -262 q 168 -254 247 -262 m 564 1275 q 392 1099 496 1196 q 386 1088 386 1094 q 399 1061 386 1078 q 424 1044 413 1044 q 481 1065 436 1042 q 633 1156 571 1111 q 664 1189 664 1176 q 635 1249 664 1213 q 586 1286 604 1286 q 564 1275 575 1286 z "},"Z":{"ha":792,"x_min":35,"x_max":757,"o":"m 749 121 q 257 61 549 64 l 246 61 l 715 893 q 724 924 724 908 q 717 964 724 946 q 450 992 574 992 q 79 928 244 992 q 75 899 75 914 q 85 857 75 875 q 419 914 285 914 q 532 910 469 914 l 42 65 q 35 36 35 49 q 43 -7 35 22 q 296 -17 135 -17 q 751 46 518 -17 q 757 81 757 58 q 749 121 757 100 z "},"a":{"ha":758,"x_min":64,"x_max":754,"o":"m 750 8 q 754 32 754 21 q 749 58 754 49 l 653 56 q 638 132 638 56 l 638 613 q 603 690 638 667 q 494 714 569 714 q 86 658 263 714 q 81 631 81 649 q 88 596 81 613 q 221 625 119 606 q 376 644 338 644 q 459 628 439 644 q 479 558 479 611 l 479 450 q 186 419 340 443 q 93 373 122 406 q 64 282 64 340 l 64 88 q 96 6 64 29 q 204 -18 128 -18 q 479 28 319 -18 q 485 -2 479 7 q 508 -15 490 -11 q 563 -18 525 -18 q 750 8 661 -18 m 479 90 q 310 60 375 60 q 222 122 222 60 l 222 276 q 240 339 222 325 q 335 372 265 360 q 479 388 403 385 l 479 90 z "},"á":{"ha":758,"x_min":64,"x_max":754,"o":"m 750 8 q 754 32 754 21 q 749 58 754 49 l 653 56 q 638 132 638 56 l 638 613 q 603 690 638 667 q 494 714 569 714 q 86 658 263 714 q 81 631 81 649 q 88 596 81 613 q 221 625 119 606 q 376 644 338 644 q 459 628 439 644 q 479 558 479 611 l 479 450 q 186 419 340 443 q 93 373 122 406 q 64 282 64 340 l 64 88 q 96 6 64 29 q 204 -18 128 -18 q 479 28 319 -18 q 485 -2 479 7 q 508 -15 490 -11 q 563 -18 525 -18 q 750 8 661 -18 m 479 90 q 310 60 375 60 q 222 122 222 60 l 222 276 q 240 339 222 325 q 335 372 265 360 q 479 388 403 385 l 479 90 m 460 1011 q 288 835 392 932 q 282 824 282 831 q 295 797 282 814 q 319 781 308 781 q 376 801 332 778 q 529 892 467 847 q 560 925 560 913 q 531 985 560 949 q 482 1022 500 1022 q 460 1011 471 1022 z "},"â":{"ha":758,"x_min":64,"x_max":754,"o":"m 750 8 q 754 32 754 21 q 749 58 754 49 l 653 56 q 638 132 638 56 l 638 613 q 603 690 638 667 q 494 714 569 714 q 86 658 263 714 q 81 631 81 649 q 88 596 81 613 q 221 625 119 606 q 376 644 338 644 q 459 628 439 644 q 479 558 479 611 l 479 450 q 186 419 340 443 q 93 373 122 406 q 64 282 64 340 l 64 88 q 96 6 64 29 q 204 -18 128 -18 q 479 28 319 -18 q 485 -2 479 7 q 508 -15 490 -11 q 563 -18 525 -18 q 750 8 661 -18 m 479 90 q 310 60 375 60 q 222 122 222 60 l 222 276 q 240 339 222 325 q 335 372 265 360 q 479 388 403 385 l 479 90 m 378 1026 q 331 1015 349 1026 l 163 833 q 160 829 160 831 q 164 819 160 825 q 176 807 168 813 q 217 789 206 789 q 244 804 225 789 l 375 913 l 508 808 q 539 792 532 792 q 557 796 544 792 q 592 814 579 804 q 597 824 596 817 q 593 836 599 831 q 425 1015 517 924 q 378 1026 414 1026 z "},"ä":{"ha":758,"x_min":64,"x_max":754,"o":"m 750 8 q 754 32 754 21 q 749 58 754 49 l 653 56 q 638 132 638 56 l 638 613 q 603 690 638 667 q 494 714 569 714 q 86 658 263 714 q 81 631 81 649 q 88 596 81 613 q 221 625 119 606 q 376 644 338 644 q 459 628 439 644 q 479 558 479 611 l 479 450 q 186 419 340 443 q 93 373 122 406 q 64 282 64 340 l 64 88 q 96 6 64 29 q 204 -18 128 -18 q 479 28 319 -18 q 485 -2 479 7 q 508 -15 490 -11 q 563 -18 525 -18 q 750 8 661 -18 m 479 90 q 310 60 375 60 q 222 122 222 60 l 222 276 q 240 339 222 325 q 335 372 265 360 q 479 388 403 385 l 479 90 m 183 868 q 203 833 183 831 l 303 839 q 324 848 319 840 q 329 876 329 856 l 329 943 q 325 976 329 968 q 306 985 321 985 l 208 979 q 188 971 192 978 q 183 942 183 964 l 183 875 l 183 868 m 429 868 q 449 833 429 831 l 550 839 q 570 848 565 840 q 575 876 575 856 l 575 943 q 571 976 575 968 q 553 985 567 985 l 456 979 q 434 971 439 978 q 429 942 429 964 l 429 875 l 429 868 z "},"à":{"ha":758,"x_min":64,"x_max":754,"o":"m 750 8 q 754 32 754 21 q 749 58 754 49 l 653 56 q 638 132 638 56 l 638 613 q 603 690 638 667 q 494 714 569 714 q 86 658 263 714 q 81 631 81 649 q 88 596 81 613 q 221 625 119 606 q 376 644 338 644 q 459 628 439 644 q 479 558 479 611 l 479 450 q 186 419 340 443 q 93 373 122 406 q 64 282 64 340 l 64 88 q 96 6 64 29 q 204 -18 128 -18 q 479 28 319 -18 q 485 -2 479 7 q 508 -15 490 -11 q 563 -18 525 -18 q 750 8 661 -18 m 479 90 q 310 60 375 60 q 222 122 222 60 l 222 276 q 240 339 222 325 q 335 372 265 360 q 479 388 403 385 l 479 90 m 285 1011 q 263 1022 274 1022 q 214 986 244 1022 q 193 953 201 972 q 185 925 185 935 q 211 894 185 911 q 275 853 243 872 q 411 782 346 807 q 424 781 415 781 q 442 789 433 781 q 456 807 450 796 q 463 825 463 818 q 457 835 463 831 q 285 1011 353 932 z "},"å":{"ha":758,"x_min":64,"x_max":754,"o":"m 750 8 q 754 32 754 21 q 749 58 754 49 l 653 56 q 638 132 638 56 l 638 613 q 603 690 638 667 q 494 714 569 714 q 86 658 263 714 q 81 631 81 649 q 88 596 81 613 q 221 625 119 606 q 376 644 338 644 q 459 628 439 644 q 479 558 479 611 l 479 450 q 186 419 340 443 q 93 373 122 406 q 64 282 64 340 l 64 88 q 96 6 64 29 q 204 -18 128 -18 q 479 28 319 -18 q 485 -2 479 7 q 508 -15 490 -11 q 563 -18 525 -18 q 750 8 661 -18 m 479 90 q 310 60 375 60 q 222 122 222 60 l 222 276 q 240 339 222 325 q 335 372 265 360 q 479 388 403 385 l 479 90 m 386 765 q 450 776 419 765 q 503 804 481 786 q 538 847 525 822 q 551 896 551 871 q 538 945 551 921 q 503 988 525 969 q 450 1016 481 1006 q 386 1026 419 1026 q 278 989 321 1026 q 235 896 235 951 q 278 803 235 840 q 386 765 321 765 m 392 832 q 338 850 361 832 q 315 896 315 868 q 339 942 315 924 q 392 960 363 960 q 446 942 422 960 q 469 896 469 924 q 464 871 469 882 q 437 844 457 856 q 392 832 417 832 z "},"ã":{"ha":758,"x_min":64,"x_max":754,"o":"m 750 8 q 754 32 754 21 q 749 58 754 49 l 653 56 q 638 132 638 56 l 638 613 q 603 690 638 667 q 494 714 569 714 q 86 658 263 714 q 81 631 81 649 q 88 596 81 613 q 221 625 119 606 q 376 644 338 644 q 459 628 439 644 q 479 558 479 611 l 479 450 q 186 419 340 443 q 93 373 122 406 q 64 282 64 340 l 64 88 q 96 6 64 29 q 204 -18 128 -18 q 479 28 319 -18 q 485 -2 479 7 q 508 -15 490 -11 q 563 -18 525 -18 q 750 8 661 -18 m 479 90 q 310 60 375 60 q 222 122 222 60 l 222 276 q 240 339 222 325 q 335 372 265 360 q 479 388 403 385 l 479 90 m 213 842 q 233 863 221 853 q 293 886 260 886 q 372 850 324 886 q 458 813 421 813 q 565 854 514 813 q 597 888 585 871 q 608 918 608 906 q 599 948 610 933 q 579 963 589 963 q 560 949 572 963 q 481 913 524 913 q 397 947 449 913 q 299 982 346 982 q 247 970 274 982 q 200 940 221 958 q 163 899 178 921 q 149 860 149 878 q 164 835 149 853 q 175 823 169 828 q 185 818 181 818 q 194 822 190 818 l 213 842 z "},"æ":{"ha":1104,"x_min":64,"x_max":1040,"o":"m 736 51 q 658 68 678 51 q 638 138 638 85 l 638 296 q 918 328 764 304 q 1011 374 982 342 q 1040 465 1040 407 l 1040 564 q 1024 656 1040 624 q 969 701 1007 688 q 860 714 931 714 q 601 690 693 714 q 494 714 565 714 q 86 658 265 714 q 81 631 81 649 q 88 596 81 610 q 225 627 129 610 q 376 644 321 644 q 459 628 439 644 q 479 558 479 611 l 479 450 q 186 419 339 443 q 93 373 122 406 q 64 282 64 340 l 64 88 q 96 6 64 31 q 204 -18 128 -18 q 490 31 317 -18 q 622 -18 518 -18 q 1031 31 844 -18 q 1036 58 1036 40 q 1029 93 1036 79 q 890 66 986 81 q 736 51 794 51 m 638 554 q 650 615 638 593 q 698 646 663 636 q 801 656 733 656 q 865 634 847 656 q 882 554 882 613 l 882 469 q 864 408 882 425 q 789 379 846 390 q 638 360 731 368 l 638 554 m 479 90 q 310 60 374 60 q 222 122 222 60 l 222 276 q 230 325 222 308 q 256 351 238 342 q 315 368 275 360 q 479 388 396 383 l 479 90 z "},"b":{"ha":778,"x_min":-19,"x_max":686,"o":"m 82 917 q 97 840 97 917 l 97 135 q 115 43 97 75 q 171 -3 132 11 q 281 -17 210 -17 q 590 18 494 -17 q 686 138 686 54 l 686 608 q 654 690 686 665 q 546 714 622 714 q 488 711 529 714 q 355 681 449 707 q 256 654 261 656 l 256 931 q 252 972 257 960 q 231 987 247 983 q 172 990 214 990 q -15 964 76 990 q -19 940 -19 951 q -14 914 -19 924 l 82 917 m 256 592 q 450 631 389 631 q 528 574 528 631 l 528 143 q 512 83 529 104 q 454 52 494 61 q 339 43 414 43 q 272 65 289 43 q 256 150 256 88 l 256 592 z "},"c":{"ha":644,"x_min":90,"x_max":613,"o":"m 599 675 q 588 708 599 689 q 478 714 543 714 q 206 679 325 714 q 113 624 136 654 q 90 531 90 594 l 90 83 q 127 5 90 28 q 247 -18 164 -18 q 607 38 443 -18 q 613 65 613 47 q 606 100 613 89 q 486 69 571 86 q 351 51 401 51 q 269 68 289 51 q 249 138 249 85 l 249 525 q 258 589 249 571 q 300 619 268 607 q 485 650 379 650 q 589 643 531 650 q 599 675 599 661 z "},"ç":{"ha":644,"x_min":90,"x_max":613,"o":"m 404 -8 q 607 38 511 4 q 613 65 613 47 q 606 100 613 89 q 486 69 571 86 q 351 51 401 51 q 269 68 289 51 q 249 138 249 85 l 249 525 q 258 589 249 571 q 300 619 268 607 q 485 650 379 650 q 589 643 531 650 q 599 675 599 661 q 588 708 599 689 q 478 714 543 714 q 206 679 325 714 q 113 624 136 654 q 90 531 90 594 l 90 83 q 124 6 90 29 q 233 -18 158 -18 q 343 -14 289 -18 l 324 -83 l 324 -89 q 342 -103 324 -103 q 415 -151 415 -106 q 389 -197 415 -176 q 318 -222 363 -218 q 300 -236 300 -224 q 338 -297 300 -271 q 421 -272 381 -296 q 485 -211 461 -247 q 510 -142 510 -175 q 478 -78 510 -103 q 392 -50 447 -53 l 404 -8 z "},"d":{"ha":807,"x_min":92,"x_max":800,"o":"m 796 8 q 800 32 800 21 q 794 58 800 49 l 697 58 q 683 132 683 58 l 683 931 q 680 972 685 960 q 658 987 675 983 q 600 990 642 990 q 413 964 504 990 q 408 940 408 951 q 414 914 408 924 l 510 917 q 525 840 525 917 l 525 714 q 214 683 346 708 q 92 551 92 661 l 92 88 q 124 6 92 31 q 232 -18 156 -18 q 279 -15 246 -18 q 375 1 335 -8 q 474 28 425 14 l 525 42 q 528 1 524 13 q 550 -15 533 -11 q 608 -18 567 -18 q 796 8 704 -18 m 525 104 q 328 65 388 65 q 250 122 250 65 l 250 550 q 269 604 250 588 q 343 632 288 621 q 525 650 397 643 l 525 104 z "},"ð":{"ha":775,"x_min":90,"x_max":679,"o":"m 311 836 q 383 797 332 797 l 472 885 q 521 797 521 857 l 521 715 q 213 683 363 708 q 120 638 150 669 q 90 551 90 607 l 90 135 q 108 43 90 75 q 164 -3 125 11 q 274 -17 203 -17 q 583 18 488 -17 q 679 138 679 54 l 679 804 q 546 956 679 908 l 604 1014 q 532 1053 583 1053 l 457 979 q 294 992 381 992 q 179 986 225 992 q 171 947 171 965 q 178 917 171 933 q 260 919 208 919 q 385 908 329 919 l 311 836 m 342 632 q 521 653 414 647 l 521 143 q 486 67 522 90 q 332 43 450 43 q 265 65 282 43 q 249 150 249 88 l 249 550 q 267 604 249 589 q 342 632 285 619 z "},"e":{"ha":717,"x_min":92,"x_max":653,"o":"m 642 93 q 503 67 599 82 q 353 51 408 51 q 270 68 290 51 q 250 138 250 85 l 250 296 q 531 328 376 304 q 624 374 594 342 q 653 465 653 407 l 653 564 q 636 656 653 624 q 581 701 619 688 q 472 714 543 714 q 183 681 272 714 q 92 560 92 646 l 92 83 q 126 6 92 29 q 235 -18 160 -18 q 643 31 457 -18 q 649 58 649 40 q 642 93 649 79 m 250 554 q 282 633 247 610 q 414 656 317 656 q 477 634 460 656 q 494 554 494 613 l 494 469 q 476 408 494 425 q 401 379 458 392 q 250 360 343 368 l 250 554 z "},"é":{"ha":717,"x_min":92,"x_max":653,"o":"m 642 93 q 503 67 599 82 q 353 51 408 51 q 270 68 290 51 q 250 138 250 85 l 250 296 q 531 328 376 304 q 624 374 594 342 q 653 465 653 407 l 653 564 q 636 656 653 624 q 581 701 619 688 q 472 714 543 714 q 183 681 272 714 q 92 560 92 646 l 92 83 q 126 6 92 29 q 235 -18 160 -18 q 643 31 457 -18 q 649 58 649 40 q 642 93 649 79 m 250 554 q 282 633 247 610 q 414 656 317 656 q 477 634 460 656 q 494 554 494 613 l 494 469 q 476 408 494 425 q 401 379 458 392 q 250 360 343 368 l 250 554 m 467 1011 q 294 835 399 932 q 289 824 289 831 q 302 797 289 814 q 326 781 315 781 q 383 801 339 778 q 536 892 474 847 q 567 925 567 913 q 538 985 567 949 q 489 1022 507 1022 q 467 1011 478 1022 z "},"ê":{"ha":717,"x_min":92,"x_max":653,"o":"m 642 93 q 503 67 599 82 q 353 51 408 51 q 270 68 290 51 q 250 138 250 85 l 250 296 q 531 328 376 304 q 624 374 594 342 q 653 465 653 407 l 653 564 q 636 656 653 624 q 581 701 619 688 q 472 714 543 714 q 183 681 272 714 q 92 560 92 646 l 92 83 q 126 6 92 29 q 235 -18 160 -18 q 643 31 457 -18 q 649 58 649 40 q 642 93 649 79 m 250 554 q 282 633 247 610 q 414 656 317 656 q 477 634 460 656 q 494 554 494 613 l 494 469 q 476 408 494 425 q 401 379 458 392 q 250 360 343 368 l 250 554 m 382 1026 q 335 1015 353 1026 l 167 833 q 164 829 164 831 q 168 819 164 825 q 181 807 172 813 q 221 789 210 789 q 249 804 229 789 l 379 913 l 513 808 q 543 792 536 792 q 561 796 549 792 q 596 814 583 804 q 601 824 600 817 q 597 836 603 831 q 429 1015 521 924 q 382 1026 418 1026 z "},"ë":{"ha":717,"x_min":92,"x_max":653,"o":"m 642 93 q 503 67 599 82 q 353 51 408 51 q 270 68 290 51 q 250 138 250 85 l 250 296 q 531 328 376 304 q 624 374 594 342 q 653 465 653 407 l 653 564 q 636 656 653 624 q 581 701 619 688 q 472 714 543 714 q 183 681 272 714 q 92 560 92 646 l 92 83 q 126 6 92 29 q 235 -18 160 -18 q 643 31 457 -18 q 649 58 649 40 q 642 93 649 79 m 250 554 q 282 633 247 610 q 414 656 317 656 q 477 634 460 656 q 494 554 494 613 l 494 469 q 476 408 494 425 q 401 379 458 392 q 250 360 343 368 l 250 554 m 190 868 q 210 833 190 831 l 310 839 q 331 848 326 840 q 336 876 336 856 l 336 943 q 332 976 336 968 q 313 985 328 985 l 215 979 q 194 971 199 978 q 190 942 190 964 l 190 875 l 190 868 m 436 868 q 456 833 436 831 l 557 839 q 577 848 572 840 q 582 876 582 856 l 582 943 q 578 976 582 968 q 560 985 574 985 l 463 979 q 441 971 446 978 q 436 942 436 964 l 436 875 l 436 868 z "},"è":{"ha":717,"x_min":92,"x_max":653,"o":"m 642 93 q 503 67 599 82 q 353 51 408 51 q 270 68 290 51 q 250 138 250 85 l 250 296 q 531 328 376 304 q 624 374 594 342 q 653 465 653 407 l 653 564 q 636 656 653 624 q 581 701 619 688 q 472 714 543 714 q 183 681 272 714 q 92 560 92 646 l 92 83 q 126 6 92 29 q 235 -18 160 -18 q 643 31 457 -18 q 649 58 649 40 q 642 93 649 79 m 250 554 q 282 633 247 610 q 414 656 317 656 q 477 634 460 656 q 494 554 494 613 l 494 469 q 476 408 494 425 q 401 379 458 392 q 250 360 343 368 l 250 554 m 292 1011 q 269 1022 281 1022 q 221 986 251 1022 q 200 953 208 972 q 192 925 192 935 q 218 894 192 911 q 282 853 250 872 q 418 782 353 807 q 431 781 422 781 q 449 789 440 781 q 463 807 457 796 q 469 825 469 818 q 464 835 469 831 q 292 1011 360 932 z "},"f":{"ha":435,"x_min":28,"x_max":453,"o":"m 447 928 q 453 956 453 938 q 446 990 453 967 q 342 985 388 990 q 249 964 296 979 q 167 915 197 947 q 138 836 138 882 l 138 694 l 33 688 q 28 660 28 678 q 35 625 28 649 l 138 632 l 138 -175 q 119 -251 139 -229 q 42 -272 99 -272 q 36 -300 36 -282 q 43 -335 36 -311 q 107 -333 92 -335 q 160 -330 131 -333 q 210 -321 190 -326 q 274 -276 256 -307 q 296 -181 296 -239 l 296 642 l 406 650 q 411 678 411 660 q 404 713 411 689 l 296 704 l 296 831 q 327 906 294 885 q 447 928 360 928 z "},"g":{"ha":778,"x_min":92,"x_max":681,"o":"m 136 -319 q 558 -283 385 -321 q 651 -237 621 -271 q 681 -146 681 -204 l 681 564 q 664 656 681 624 q 609 701 647 688 q 500 714 571 714 q 189 681 288 714 q 92 560 92 646 l 92 88 q 124 6 92 31 q 232 -18 156 -18 q 346 -4 290 -18 q 463 25 394 7 l 522 42 l 522 -135 q 517 -178 522 -164 q 496 -206 513 -192 q 432 -229 476 -221 q 129 -247 343 -247 q 124 -283 124 -260 q 136 -319 124 -297 m 250 554 q 286 633 249 610 q 442 656 321 656 q 505 633 488 656 q 522 547 522 610 l 522 104 q 328 65 389 65 q 250 122 250 65 l 250 554 z "},"h":{"ha":808,"x_min":-17,"x_max":799,"o":"m 794 8 q 799 32 799 21 q 793 58 799 49 l 697 56 q 682 132 682 56 l 682 608 q 650 690 682 665 q 542 714 618 714 q 453 706 503 714 l 358 683 l 258 654 l 258 931 q 255 972 260 960 q 233 987 250 983 q 175 990 217 990 q -12 964 79 990 q -17 940 -17 951 q -11 914 -17 924 l 85 917 q 100 840 100 917 l 100 6 q 124 -18 100 -18 q 236 -3 183 -18 q 258 25 258 6 l 258 590 q 446 631 392 631 q 524 574 524 631 l 524 42 q 527 1 522 13 q 549 -15 532 -11 q 607 -18 565 -18 q 794 8 703 -18 z "},"i":{"ha":419,"x_min":14,"x_max":406,"o":"m 103 872 q 125 828 100 825 l 233 832 q 256 843 251 835 q 261 875 261 851 l 261 946 q 239 990 264 993 l 131 986 q 108 975 113 983 q 103 943 103 967 l 103 872 m 401 8 q 406 32 406 21 q 400 58 406 49 l 303 58 q 289 132 289 58 l 289 654 q 285 695 290 683 q 264 710 281 707 q 206 714 247 714 q 18 688 110 714 q 14 664 14 675 q 19 638 14 647 l 115 640 q 131 564 131 640 l 131 42 q 134 1 129 13 q 156 -15 139 -11 q 214 -18 172 -18 q 401 8 310 -18 z "},"ı":{"ha":419,"x_min":14,"x_max":406,"o":"m 401 8 q 406 32 406 21 q 400 58 406 49 l 304 56 q 289 132 289 56 l 289 654 q 285 695 290 683 q 264 710 281 707 q 206 714 247 714 q 18 688 110 714 q 14 664 14 675 q 19 638 14 647 l 115 640 q 131 564 131 640 l 131 42 q 134 1 129 13 q 156 -15 139 -11 q 214 -18 172 -18 q 401 8 310 -18 z "},"í":{"ha":419,"x_min":14,"x_max":406,"o":"m 401 8 q 406 32 406 21 q 400 58 406 49 l 304 56 q 289 132 289 56 l 289 654 q 285 695 290 683 q 264 710 281 707 q 206 714 247 714 q 18 688 110 714 q 14 664 14 675 q 19 638 14 647 l 115 640 q 131 564 131 640 l 131 42 q 134 1 129 13 q 156 -15 139 -11 q 214 -18 172 -18 q 401 8 310 -18 m 276 1011 q 104 835 208 932 q 99 824 99 831 q 112 797 99 814 q 136 781 125 781 q 193 801 149 778 q 346 892 283 847 q 376 925 376 913 q 347 985 376 949 q 299 1022 317 1022 q 276 1011 288 1022 z "},"î":{"ha":419,"x_min":-50,"x_max":406,"o":"m 401 8 q 406 32 406 21 q 400 58 406 49 l 304 56 q 289 132 289 56 l 289 654 q 285 695 290 683 q 264 710 281 707 q 206 714 247 714 q 18 688 110 714 q 14 664 14 675 q 19 638 14 647 l 115 640 q 131 564 131 640 l 131 42 q 134 1 129 13 q 156 -15 139 -11 q 214 -18 172 -18 q 401 8 310 -18 m 168 1026 q 121 1015 139 1026 l -47 833 q -50 829 -50 831 q -46 819 -50 825 q -33 807 -42 813 q 7 789 -4 789 q 35 804 15 789 l 165 913 l 299 808 q 329 792 322 792 q 347 796 335 792 q 382 814 369 804 q 388 824 386 817 q 383 836 389 831 q 215 1015 307 924 q 168 1026 204 1026 z "},"ï":{"ha":419,"x_min":3,"x_max":406,"o":"m 401 8 q 406 32 406 21 q 400 58 406 49 l 304 56 q 289 132 289 56 l 289 654 q 285 695 290 683 q 264 710 281 707 q 206 714 247 714 q 18 688 110 714 q 14 664 14 675 q 19 638 14 647 l 115 640 q 131 564 131 640 l 131 42 q 134 1 129 13 q 156 -15 139 -11 q 214 -18 172 -18 q 401 8 310 -18 m 3 868 q 22 833 3 831 l 122 839 q 144 848 139 840 q 149 876 149 856 l 149 943 q 144 976 149 968 q 125 985 140 985 l 28 979 q 7 971 11 978 q 3 942 3 964 l 3 875 l 3 868 m 249 868 q 268 833 249 831 l 369 839 q 390 848 385 840 q 394 876 394 856 l 394 943 q 390 976 394 968 q 372 985 386 985 l 275 979 q 253 971 258 978 q 249 942 249 964 l 249 875 l 249 868 z "},"ì":{"ha":419,"x_min":-11,"x_max":406,"o":"m 401 8 q 406 32 406 21 q 400 58 406 49 l 304 56 q 289 132 289 56 l 289 654 q 285 695 290 683 q 264 710 281 707 q 206 714 247 714 q 18 688 110 714 q 14 664 14 675 q 19 638 14 647 l 115 640 q 131 564 131 640 l 131 42 q 134 1 129 13 q 156 -15 139 -11 q 214 -18 172 -18 q 401 8 310 -18 m 89 1011 q 67 1022 78 1022 q 18 986 49 1022 q -3 953 6 972 q -11 925 -11 935 q 15 894 -11 911 q 79 853 47 872 q 215 782 150 807 q 228 781 219 781 q 246 789 238 781 q 260 807 254 796 q 267 825 267 818 q 261 835 267 831 q 89 1011 157 932 z "},"j":{"ha":396,"x_min":-19,"x_max":297,"o":"m 103 872 q 125 828 100 825 l 233 832 q 256 843 251 835 q 261 875 261 851 l 261 946 q 239 990 264 993 l 131 986 q 108 975 113 983 q 103 943 103 967 l 103 872 m 122 640 q 138 564 138 640 l 138 -175 q 106 -251 139 -229 q -14 -272 74 -272 q -19 -300 -19 -282 q -12 -335 -19 -311 q 93 -328 46 -335 q 188 -307 140 -322 q 267 -258 239 -290 q 296 -181 296 -225 l 296 654 q 292 695 297 683 q 271 710 288 707 q 213 714 254 714 q 25 688 117 714 q 21 664 21 675 q 26 638 21 647 l 122 640 z "},"k":{"ha":757,"x_min":-17,"x_max":740,"o":"m 85 917 q 100 840 100 917 l 100 6 q 124 -18 100 -18 q 236 -3 183 -18 q 258 25 258 6 l 258 296 q 361 303 329 297 l 463 42 q 486 -7 475 4 q 506 -16 493 -14 q 549 -18 519 -18 q 736 8 644 -18 q 740 31 740 19 q 735 58 740 42 l 639 56 q 618 71 629 56 q 590 132 611 81 l 515 322 l 543 328 q 636 374 607 342 q 665 465 665 407 l 665 608 q 633 690 665 665 q 525 714 601 714 q 447 708 481 714 q 351 688 414 704 q 258 661 288 671 l 258 931 q 255 972 260 960 q 233 987 250 983 q 175 990 217 990 q -12 964 79 990 q -17 940 -17 951 q -11 914 -17 924 l 85 917 m 258 597 q 429 631 369 631 q 507 574 507 631 l 507 471 q 499 422 507 439 q 473 397 492 406 q 414 379 454 388 q 258 360 339 364 l 258 597 z "},"l":{"ha":404,"x_min":-1,"x_max":390,"o":"m 386 8 q 390 32 390 21 q 385 58 390 49 l 289 56 q 274 132 274 56 l 274 931 q 270 972 275 960 q 249 987 265 983 q 190 990 232 990 q 3 964 94 990 q -1 940 -1 951 q 4 914 -1 924 l 100 917 q 115 840 115 917 l 115 42 q 119 1 114 13 q 140 -15 124 -11 q 199 -18 157 -18 q 386 8 294 -18 z "},"m":{"ha":1263,"x_min":14,"x_max":1253,"o":"m 289 590 q 476 631 422 631 q 554 574 554 631 l 554 6 q 578 -18 554 -18 q 690 -3 638 -18 q 713 25 713 6 l 713 590 q 900 631 849 631 q 978 574 978 631 l 978 42 q 981 1 976 13 q 1003 -15 986 -11 q 1061 -18 1019 -18 q 1249 8 1157 -18 l 1250 17 q 1253 32 1253 28 q 1247 58 1253 43 l 1151 56 q 1139 69 1140 56 q 1136 132 1136 86 l 1136 608 q 1104 690 1136 665 q 996 714 1072 714 q 904 706 957 714 q 807 681 888 701 q 706 651 738 663 q 579 714 685 714 q 453 699 524 714 q 289 654 390 685 q 285 695 290 683 q 264 710 281 707 q 206 714 247 714 q 18 688 110 714 q 14 664 14 675 q 19 638 14 647 l 115 640 q 131 564 131 640 l 131 6 q 154 -18 131 -18 q 267 -3 214 -18 q 289 25 289 6 l 289 590 z "},"n":{"ha":849,"x_min":14,"x_max":839,"o":"m 289 592 q 486 631 424 631 q 564 574 564 631 l 564 42 q 567 1 563 13 q 589 -15 572 -11 q 647 -18 606 -18 q 835 8 743 -18 q 839 32 839 21 q 833 58 839 49 l 738 56 q 722 132 722 56 l 722 608 q 690 690 722 665 q 582 714 658 714 q 535 711 568 714 q 440 694 479 704 q 410 688 408 688 q 340 669 389 683 l 289 654 q 285 695 290 683 q 264 710 281 707 q 206 714 247 714 q 18 688 110 714 q 14 664 14 675 q 19 638 14 647 l 115 640 q 131 564 131 640 l 131 6 q 154 -18 131 -18 q 267 -3 214 -18 q 289 25 289 6 l 289 592 z "},"ñ":{"ha":849,"x_min":14,"x_max":839,"o":"m 289 592 q 486 631 424 631 q 564 574 564 631 l 564 42 q 567 1 563 13 q 589 -15 572 -11 q 647 -18 606 -18 q 835 8 743 -18 q 839 32 839 21 q 833 58 839 49 l 738 56 q 722 132 722 56 l 722 608 q 690 690 722 665 q 582 714 658 714 q 535 711 568 714 q 440 694 479 704 q 410 688 408 688 q 340 669 389 683 l 289 654 q 285 695 290 683 q 264 710 281 707 q 206 714 247 714 q 18 688 110 714 q 14 664 14 675 q 19 638 14 647 l 115 640 q 131 564 131 640 l 131 6 q 154 -18 131 -18 q 267 -3 214 -18 q 289 25 289 6 l 289 592 m 243 842 q 264 863 251 853 q 324 886 290 886 q 403 850 354 886 q 489 813 451 813 q 596 854 544 813 q 627 888 615 871 q 639 918 639 906 q 630 948 640 933 q 610 963 619 963 q 590 949 603 963 q 511 913 554 913 q 428 947 479 913 q 329 982 376 982 q 278 970 304 982 q 231 940 251 958 q 194 899 208 921 q 179 860 179 878 q 194 835 179 853 q 206 823 200 828 q 215 818 211 818 q 225 822 221 818 l 243 842 z "},"o":{"ha":769,"x_min":90,"x_max":679,"o":"m 679 564 q 663 656 679 624 q 608 701 646 688 q 499 714 569 714 q 188 681 286 714 q 90 560 90 646 l 90 135 q 108 43 90 75 q 164 -3 125 11 q 274 -17 203 -17 q 583 18 488 -17 q 679 138 679 54 l 679 564 m 521 143 q 488 67 522 89 q 332 43 454 46 q 265 65 282 43 q 249 150 249 88 l 249 554 q 285 633 247 610 q 440 656 319 656 q 503 633 486 656 q 521 547 521 610 l 521 143 z "},"ó":{"ha":769,"x_min":90,"x_max":679,"o":"m 679 564 q 663 656 679 624 q 608 701 646 688 q 499 714 569 714 q 188 681 286 714 q 90 560 90 646 l 90 135 q 108 43 90 75 q 164 -3 125 11 q 274 -17 203 -17 q 583 18 488 -17 q 679 138 679 54 l 679 564 m 521 143 q 488 67 522 89 q 332 43 454 46 q 265 65 282 43 q 249 150 249 88 l 249 554 q 285 633 247 610 q 440 656 319 656 q 503 633 486 656 q 521 547 521 610 l 521 143 m 493 1011 q 321 835 425 932 q 315 824 315 831 q 328 797 315 814 q 353 781 342 781 q 410 801 365 778 q 563 892 500 847 q 593 925 593 913 q 564 985 593 949 q 515 1022 533 1022 q 493 1011 504 1022 z "},"ô":{"ha":769,"x_min":90,"x_max":679,"o":"m 679 564 q 663 656 679 624 q 608 701 646 688 q 499 714 569 714 q 188 681 286 714 q 90 560 90 646 l 90 135 q 108 43 90 75 q 164 -3 125 11 q 274 -17 203 -17 q 583 18 488 -17 q 679 138 679 54 l 679 564 m 521 143 q 488 67 522 89 q 332 43 454 46 q 265 65 282 43 q 249 150 249 88 l 249 554 q 285 633 247 610 q 440 656 319 656 q 503 633 486 656 q 521 547 521 610 l 521 143 m 383 1026 q 336 1015 354 1026 l 168 833 q 165 829 165 831 q 169 819 165 825 q 182 807 174 813 q 222 789 211 789 q 250 804 231 789 l 381 913 l 514 808 q 544 792 538 792 q 563 796 550 792 q 597 814 585 804 q 603 824 601 817 q 599 836 604 831 q 431 1015 522 924 q 383 1026 419 1026 z "},"ö":{"ha":769,"x_min":90,"x_max":679,"o":"m 679 564 q 663 656 679 624 q 608 701 646 688 q 499 714 569 714 q 188 681 286 714 q 90 560 90 646 l 90 135 q 108 43 90 75 q 164 -3 125 11 q 274 -17 203 -17 q 583 18 488 -17 q 679 138 679 54 l 679 564 m 521 143 q 488 67 522 89 q 332 43 454 46 q 265 65 282 43 q 249 150 249 88 l 249 554 q 285 633 247 610 q 440 656 319 656 q 503 633 486 656 q 521 547 521 610 l 521 143 m 189 868 q 208 833 189 831 l 308 839 q 330 848 325 840 q 335 876 335 856 l 335 943 q 331 976 335 968 q 311 985 326 985 l 214 979 q 193 971 197 978 q 189 942 189 964 l 189 875 l 189 868 m 435 868 q 454 833 435 831 l 556 839 q 576 848 571 840 q 581 876 581 856 l 581 943 q 576 976 581 968 q 558 985 572 985 l 461 979 q 440 971 444 978 q 435 942 435 964 l 435 875 l 435 868 z "},"ò":{"ha":769,"x_min":90,"x_max":679,"o":"m 679 564 q 663 656 679 624 q 608 701 646 688 q 499 714 569 714 q 188 681 286 714 q 90 560 90 646 l 90 135 q 108 43 90 75 q 164 -3 125 11 q 274 -17 203 -17 q 583 18 488 -17 q 679 138 679 54 l 679 564 m 521 143 q 488 67 522 89 q 332 43 454 46 q 265 65 282 43 q 249 150 249 88 l 249 554 q 285 633 247 610 q 440 656 319 656 q 503 633 486 656 q 521 547 521 610 l 521 143 m 290 1011 q 268 1022 279 1022 q 219 986 250 1022 q 199 953 207 972 q 190 925 190 935 q 217 894 190 911 q 281 853 249 872 q 417 782 351 807 q 429 781 421 781 q 447 789 439 781 q 462 807 456 796 q 468 825 468 818 q 463 835 468 831 q 290 1011 358 932 z "},"ø":{"ha":786,"x_min":13,"x_max":774,"o":"m 13 18 q 85 -21 33 -21 l 129 24 q 282 -17 169 -17 q 592 18 496 -17 q 688 138 688 54 l 688 564 l 688 579 l 686 593 l 774 679 q 701 718 753 718 l 657 674 q 517 714 624 714 q 196 681 296 714 q 99 560 99 646 l 99 135 q 100 104 99 111 l 13 18 m 257 554 q 293 633 256 610 q 449 656 329 656 q 512 633 494 656 q 529 547 529 610 l 529 538 l 257 271 l 257 554 m 529 143 q 494 67 531 90 q 340 43 458 43 q 274 65 290 43 q 257 150 257 88 l 257 161 l 529 426 l 529 143 z "},"õ":{"ha":769,"x_min":90,"x_max":679,"o":"m 679 564 q 663 656 679 624 q 608 701 646 688 q 499 714 569 714 q 188 681 286 714 q 90 560 90 646 l 90 135 q 108 43 90 75 q 164 -3 125 11 q 274 -17 203 -17 q 583 18 488 -17 q 679 138 679 54 l 679 564 m 521 143 q 488 67 522 89 q 332 43 454 46 q 265 65 282 43 q 249 150 249 88 l 249 554 q 285 633 247 610 q 440 656 319 656 q 503 633 486 656 q 521 547 521 610 l 521 143 m 218 842 q 239 863 226 853 q 299 886 265 886 q 378 850 329 886 q 464 813 426 813 q 571 854 519 813 q 602 888 590 871 q 614 918 614 906 q 605 948 615 933 q 585 963 594 963 q 565 949 578 963 q 486 913 529 913 q 403 947 454 913 q 304 982 351 982 q 253 970 279 982 q 206 940 226 958 q 169 899 183 921 q 154 860 154 878 q 169 835 154 853 q 181 823 175 828 q 190 818 186 818 q 200 822 196 818 l 218 842 z "},"œ":{"ha":1146,"x_min":90,"x_max":1082,"o":"m 1071 93 q 930 67 1028 82 q 782 51 832 51 q 700 69 721 51 q 679 138 679 86 l 679 296 q 960 328 806 304 q 1053 374 1024 342 q 1082 465 1082 407 l 1082 564 q 1065 656 1082 624 q 1010 701 1049 688 q 901 714 972 714 q 635 686 726 714 q 499 714 594 714 q 188 681 286 714 q 90 560 90 646 l 90 135 q 108 43 90 75 q 164 -3 125 11 q 274 -17 203 -17 q 553 7 456 -17 q 664 -18 588 -18 q 1072 31 886 -18 q 1078 58 1078 40 q 1071 93 1078 79 m 521 143 q 486 67 521 89 q 332 43 450 43 q 265 65 282 43 q 249 150 249 88 l 249 554 q 285 633 249 610 q 440 656 319 656 q 503 633 486 656 q 521 547 521 610 l 521 143 m 679 554 q 692 615 679 593 q 740 646 704 636 q 843 656 775 656 q 906 634 889 656 q 924 554 924 613 l 924 469 q 906 408 924 425 q 831 379 888 392 q 679 360 772 368 l 679 554 z "},"p":{"ha":814,"x_min":14,"x_max":724,"o":"m 115 640 q 131 564 131 640 l 131 -311 q 154 -335 131 -335 q 267 -319 214 -335 q 289 -292 289 -311 l 289 -7 q 600 28 450 -1 q 722 163 724 49 l 722 608 q 690 690 722 665 q 582 714 658 714 q 535 711 568 714 q 440 694 479 704 q 410 688 408 688 q 340 669 389 683 l 289 654 q 285 695 290 683 q 264 710 281 707 q 206 714 247 714 q 18 688 110 714 q 14 664 14 675 q 19 638 14 647 l 115 640 m 289 590 q 486 631 443 631 q 564 574 564 631 l 564 165 q 546 104 564 121 q 471 76 528 88 q 289 56 404 63 l 289 590 z "},"þ":{"ha":783,"x_min":-17,"x_max":692,"o":"m 85 917 q 100 840 100 917 l 100 -311 q 124 -335 100 -335 q 236 -319 183 -335 q 258 -292 258 -311 l 258 -7 q 569 25 443 -1 q 662 71 632 38 q 692 163 692 104 l 692 608 q 660 690 692 665 q 551 714 628 714 q 504 711 538 714 q 410 694 449 704 q 379 688 378 688 q 310 669 358 683 l 258 654 l 258 931 q 255 972 260 960 q 233 987 250 983 q 175 990 217 990 q -12 964 79 990 q -17 940 -17 951 q -11 914 -17 924 l 85 917 m 258 590 q 456 631 413 631 q 533 574 533 631 l 533 168 q 526 119 533 136 q 499 94 518 103 q 440 76 481 85 q 258 56 374 63 l 258 590 z "},"q":{"ha":778,"x_min":92,"x_max":681,"o":"m 681 564 q 664 656 681 624 q 609 701 647 688 q 500 714 571 714 q 189 681 288 714 q 92 560 92 646 l 92 88 q 124 6 92 31 q 232 -18 156 -18 q 346 -4 290 -18 q 463 25 394 7 l 522 42 l 522 -311 q 546 -335 522 -335 q 658 -319 606 -335 q 681 -292 681 -311 l 681 564 m 522 104 q 328 65 385 65 q 250 122 250 65 l 250 554 q 286 633 249 610 q 442 656 321 656 q 504 633 486 656 q 522 550 522 610 l 522 104 z "},"r":{"ha":654,"x_min":14,"x_max":625,"o":"m 115 640 q 131 564 131 640 l 131 42 q 134 1 129 13 q 156 -15 139 -11 q 214 -18 172 -18 q 401 8 310 -18 q 406 32 406 21 q 400 58 406 49 l 304 56 q 289 132 289 56 l 289 592 q 413 625 369 625 q 467 574 467 625 l 467 458 q 490 435 467 435 q 603 450 550 435 q 625 478 625 458 l 625 608 q 593 690 625 665 q 485 714 561 714 q 289 654 426 714 q 285 695 290 683 q 264 710 281 707 q 206 714 247 714 q 18 688 110 714 q 14 664 14 675 q 19 638 14 647 l 115 640 z "},"s":{"ha":526,"x_min":36,"x_max":489,"o":"m 43 -11 q 247 -18 117 -18 q 422 12 354 -18 q 489 101 489 42 q 442 233 489 157 l 247 540 q 225 596 225 572 q 332 651 225 651 q 451 646 413 651 q 458 676 458 664 q 450 708 458 692 q 324 714 404 714 q 58 596 58 714 q 68 535 58 561 q 111 458 78 508 l 306 151 q 325 101 325 115 q 297 57 325 68 q 197 44 268 44 q 42 51 88 44 q 36 21 36 39 q 43 -11 36 3 z "},"ß":{"ha":718,"x_min":-1,"x_max":636,"o":"m 258 831 q 379 933 265 933 q 433 909 418 933 q 447 825 447 885 l 447 738 q 324 607 447 618 q 317 578 317 589 q 325 544 317 560 l 347 544 q 442 525 406 544 q 478 469 478 506 l 478 142 q 456 68 479 89 q 363 47 432 47 q 290 53 319 47 q 285 22 285 36 q 292 -10 285 7 q 425 -18 354 -18 q 585 19 533 -18 q 636 139 636 57 l 636 436 q 583 547 636 508 q 442 585 531 585 l 442 588 q 560 647 514 604 q 606 743 606 690 l 606 856 q 568 963 606 932 q 439 993 531 993 q 100 836 100 993 l 100 -175 q 81 -251 101 -229 q 4 -272 61 -272 q -1 -300 -1 -282 q 6 -335 -1 -311 q 69 -333 54 -335 q 124 -331 93 -333 q 172 -322 156 -328 q 209 -304 190 -317 q 236 -276 228 -292 q 258 -181 258 -239 l 258 831 z "},"t":{"ha":449,"x_min":28,"x_max":411,"o":"m 407 8 q 411 32 411 21 q 406 58 411 49 l 310 56 q 294 132 294 56 l 294 642 l 406 650 q 411 678 411 660 q 404 713 411 689 l 294 704 l 294 924 q 271 947 294 947 q 158 932 211 947 q 136 904 136 924 l 136 694 l 33 688 q 28 660 28 678 q 35 625 28 649 l 136 632 l 136 42 q 140 1 135 13 q 161 -15 144 -11 q 219 -18 178 -18 q 407 8 315 -18 z "},"u":{"ha":832,"x_min":10,"x_max":818,"o":"m 814 8 q 818 32 818 24 q 813 58 818 51 l 717 56 q 704 69 706 56 q 701 132 701 86 l 701 654 q 697 695 703 683 q 675 710 692 707 q 618 714 658 714 q 431 688 522 714 q 426 664 426 675 q 432 638 426 644 l 528 640 q 543 564 543 640 l 543 104 q 363 65 418 65 q 285 122 285 65 l 285 654 q 281 695 286 683 q 260 710 276 707 q 201 714 243 714 q 14 688 106 714 q 10 664 10 675 q 15 638 10 647 l 111 640 q 126 564 126 640 l 126 88 q 158 6 126 31 q 267 -18 190 -18 q 354 -10 307 -18 q 446 13 400 -1 l 543 42 q 547 1 542 13 q 568 -15 551 -11 q 626 -18 585 -18 q 814 8 722 -18 z "},"ú":{"ha":832,"x_min":10,"x_max":818,"o":"m 814 8 q 818 32 818 24 q 813 58 818 51 l 717 56 q 704 69 706 56 q 701 132 701 86 l 701 654 q 697 695 703 683 q 675 710 692 707 q 618 714 658 714 q 431 688 522 714 q 426 664 426 675 q 432 638 426 644 l 528 640 q 543 564 543 640 l 543 104 q 363 65 418 65 q 285 122 285 65 l 285 654 q 281 695 286 683 q 260 710 276 707 q 201 714 243 714 q 14 688 106 714 q 10 664 10 675 q 15 638 10 647 l 111 640 q 126 564 126 640 l 126 88 q 158 6 126 31 q 267 -18 190 -18 q 354 -10 307 -18 q 446 13 400 -1 l 543 42 q 547 1 542 13 q 568 -15 551 -11 q 626 -18 585 -18 q 814 8 722 -18 m 496 1011 q 324 835 428 932 q 318 824 318 831 q 331 797 318 814 q 356 781 344 781 q 413 801 368 778 q 565 892 503 847 q 596 925 596 913 q 567 985 596 949 q 518 1022 536 1022 q 496 1011 507 1022 z "},"û":{"ha":832,"x_min":10,"x_max":818,"o":"m 814 8 q 818 32 818 24 q 813 58 818 51 l 717 56 q 704 69 706 56 q 701 132 701 86 l 701 654 q 697 695 703 683 q 675 710 692 707 q 618 714 658 714 q 431 688 522 714 q 426 664 426 675 q 432 638 426 644 l 528 640 q 543 564 543 640 l 543 104 q 363 65 418 65 q 285 122 285 65 l 285 654 q 281 695 286 683 q 260 710 276 707 q 201 714 243 714 q 14 688 106 714 q 10 664 10 675 q 15 638 10 647 l 111 640 q 126 564 126 640 l 126 88 q 158 6 126 31 q 267 -18 190 -18 q 354 -10 307 -18 q 446 13 400 -1 l 543 42 q 547 1 542 13 q 568 -15 551 -11 q 626 -18 585 -18 q 814 8 722 -18 m 400 1026 q 353 1015 371 1026 l 185 833 q 182 829 182 831 q 186 819 182 825 q 199 807 190 813 q 239 789 228 789 q 267 804 247 789 l 397 913 l 531 808 q 561 792 554 792 q 579 796 567 792 q 614 814 601 804 q 619 824 618 817 q 615 836 621 831 q 447 1015 539 924 q 400 1026 436 1026 z "},"ü":{"ha":832,"x_min":10,"x_max":818,"o":"m 814 8 q 818 32 818 24 q 813 58 818 51 l 717 56 q 704 69 706 56 q 701 132 701 86 l 701 654 q 697 695 703 683 q 675 710 692 707 q 618 714 658 714 q 431 688 522 714 q 426 664 426 675 q 432 638 426 644 l 528 640 q 543 564 543 640 l 543 104 q 363 65 418 65 q 285 122 285 65 l 285 654 q 281 695 286 683 q 260 710 276 707 q 201 714 243 714 q 14 688 106 714 q 10 664 10 675 q 15 638 10 647 l 111 640 q 126 564 126 640 l 126 88 q 158 6 126 31 q 267 -18 190 -18 q 354 -10 307 -18 q 446 13 400 -1 l 543 42 q 547 1 542 13 q 568 -15 551 -11 q 626 -18 585 -18 q 814 8 722 -18 m 207 868 q 226 833 207 831 l 326 839 q 348 848 343 840 q 353 876 353 856 l 353 943 q 349 976 353 968 q 329 985 344 985 l 232 979 q 211 971 215 978 q 207 942 207 964 l 207 875 l 207 868 m 453 868 q 472 833 453 831 l 574 839 q 594 848 589 840 q 599 876 599 856 l 599 943 q 594 976 599 968 q 576 985 590 985 l 479 979 q 458 971 463 978 q 453 942 453 964 l 453 875 l 453 868 z "},"ù":{"ha":832,"x_min":10,"x_max":818,"o":"m 814 8 q 818 32 818 24 q 813 58 818 51 l 717 56 q 704 69 706 56 q 701 132 701 86 l 701 654 q 697 695 703 683 q 675 710 692 707 q 618 714 658 714 q 431 688 522 714 q 426 664 426 675 q 432 638 426 644 l 528 640 q 543 564 543 640 l 543 104 q 363 65 418 65 q 285 122 285 65 l 285 654 q 281 695 286 683 q 260 710 276 707 q 201 714 243 714 q 14 688 106 714 q 10 664 10 675 q 15 638 10 647 l 111 640 q 126 564 126 640 l 126 88 q 158 6 126 31 q 267 -18 190 -18 q 354 -10 307 -18 q 446 13 400 -1 l 543 42 q 547 1 542 13 q 568 -15 551 -11 q 626 -18 585 -18 q 814 8 722 -18 m 293 1011 q 271 1022 282 1022 q 222 986 253 1022 q 201 953 210 972 q 193 925 193 935 q 219 894 193 911 q 283 853 251 872 q 419 782 354 807 q 432 781 424 781 q 450 789 442 781 q 465 807 458 796 q 471 825 471 818 q 465 835 471 831 q 293 1011 361 932 z "},"v":{"ha":799,"x_min":10,"x_max":708,"o":"m 111 640 q 126 564 126 640 l 126 135 q 137 62 126 90 q 172 17 147 33 q 235 -9 196 -1 q 338 -17 275 -17 q 624 31 538 -17 q 688 91 668 54 q 708 179 708 128 l 708 608 q 706 656 708 639 q 694 685 704 672 q 600 713 671 713 q 435 686 525 713 q 433 668 433 678 q 442 629 433 649 q 526 640 486 640 q 546 626 542 640 q 550 574 550 613 l 550 185 q 530 92 550 122 q 469 53 510 63 q 353 43 429 43 q 299 67 314 43 q 285 150 285 90 l 285 654 q 283 689 285 682 q 247 713 279 708 q 201 714 236 714 q 14 688 103 714 q 10 664 10 675 q 15 638 10 647 l 111 640 z "},"w":{"ha":1208,"x_min":14,"x_max":1118,"o":"m 707 608 q 705 656 707 639 q 693 685 703 672 q 599 713 669 713 q 433 686 524 713 q 432 668 432 678 q 440 629 432 649 q 525 640 485 640 q 544 626 540 640 q 549 574 549 613 l 549 100 q 365 51 479 51 q 306 75 324 51 q 289 157 289 99 l 289 654 q 288 686 289 678 q 251 713 283 708 q 206 714 240 714 q 18 688 111 714 q 14 664 14 675 q 19 638 14 647 l 115 640 q 126 625 122 640 q 131 564 131 611 l 131 135 q 183 15 131 47 q 250 -9 210 -1 q 350 -17 290 -17 q 565 35 483 -17 q 628 -6 585 4 q 760 -17 671 -17 q 931 -6 863 -17 q 1040 31 999 6 q 1099 90 1081 54 q 1118 179 1118 126 l 1118 608 q 1116 656 1118 639 q 1104 685 1114 672 q 1010 713 1081 713 q 844 686 935 713 q 843 668 843 678 q 851 629 843 649 q 936 640 896 640 q 956 626 951 640 q 960 574 960 613 l 960 185 q 951 115 960 142 q 921 72 942 88 q 865 49 900 56 q 775 43 831 43 q 722 65 736 43 q 707 150 707 86 l 707 608 z "},"x":{"ha":707,"x_min":-15,"x_max":725,"o":"m 622 715 q 579 726 597 726 q 532 715 561 726 l 386 464 l 286 657 q 262 698 272 686 q 234 713 251 710 q 176 717 217 717 q -11 690 81 717 q -15 668 -15 681 q -10 640 -15 657 l 86 643 q 150 567 115 643 l 272 333 l 74 -8 q 119 -21 97 -21 q 164 -8 142 -21 l 315 253 l 428 42 q 451 0 443 11 q 476 -15 460 -11 q 533 -18 493 -18 q 721 8 629 -18 q 725 31 725 19 q 719 58 725 42 l 624 56 q 560 132 594 56 l 429 382 l 622 715 z "},"y":{"ha":818,"x_min":10,"x_max":721,"o":"m 560 -135 q 551 -182 560 -165 q 518 -210 543 -199 q 440 -231 493 -221 q 167 -247 361 -244 q 161 -283 161 -260 q 174 -319 161 -297 q 596 -285 425 -321 q 718 -146 721 -261 l 718 654 q 715 695 719 683 q 693 710 710 707 q 635 714 676 714 q 447 688 539 714 q 443 664 443 675 q 449 638 443 647 l 544 640 q 560 564 560 640 l 560 104 q 363 65 422 65 q 285 122 285 65 l 285 654 q 281 695 286 683 q 260 710 276 707 q 201 714 243 714 q 14 688 106 714 q 10 664 10 675 q 15 638 10 647 l 111 640 q 126 564 126 640 l 126 88 q 158 6 126 31 q 267 -18 190 -18 q 314 -15 281 -18 q 410 1 369 -8 q 508 28 460 14 l 560 42 l 560 -135 z "},"ý":{"ha":818,"x_min":10,"x_max":721,"o":"m 560 -135 q 551 -182 560 -165 q 518 -210 543 -199 q 440 -231 493 -221 q 167 -247 361 -244 q 161 -283 161 -260 q 174 -319 161 -297 q 596 -285 425 -321 q 718 -146 721 -261 l 718 654 q 715 695 719 683 q 693 710 710 707 q 635 714 676 714 q 447 688 539 714 q 443 664 443 675 q 449 638 443 647 l 544 640 q 560 564 560 640 l 560 104 q 363 65 422 65 q 285 122 285 65 l 285 654 q 281 695 286 683 q 260 710 276 707 q 201 714 243 714 q 14 688 106 714 q 10 664 10 675 q 15 638 10 647 l 111 640 q 126 564 126 640 l 126 88 q 158 6 126 31 q 267 -18 190 -18 q 314 -15 281 -18 q 410 1 369 -8 q 508 28 460 14 l 560 42 l 560 -135 m 489 1011 q 317 835 421 932 q 311 824 311 831 q 324 797 311 814 q 349 781 338 781 q 406 801 361 778 q 558 892 496 847 q 589 925 589 913 q 560 985 589 949 q 511 1022 529 1022 q 489 1011 500 1022 z "},"ÿ":{"ha":818,"x_min":10,"x_max":721,"o":"m 560 -135 q 551 -182 560 -165 q 518 -210 543 -199 q 440 -231 493 -221 q 167 -247 361 -244 q 161 -283 161 -260 q 174 -319 161 -297 q 596 -285 425 -321 q 718 -146 721 -261 l 718 654 q 715 695 719 683 q 693 710 710 707 q 635 714 676 714 q 447 688 539 714 q 443 664 443 675 q 449 638 443 647 l 544 640 q 560 564 560 640 l 560 104 q 363 65 422 65 q 285 122 285 65 l 285 654 q 281 695 286 683 q 260 710 276 707 q 201 714 243 714 q 14 688 106 714 q 10 664 10 675 q 15 638 10 647 l 111 640 q 126 564 126 640 l 126 88 q 158 6 126 31 q 267 -18 190 -18 q 314 -15 281 -18 q 410 1 369 -8 q 508 28 460 14 l 560 42 l 560 -135 m 228 868 q 247 833 228 831 l 347 839 q 369 848 364 840 q 374 876 374 856 l 374 943 q 369 976 374 968 q 350 985 365 985 l 253 979 q 232 971 236 978 q 228 942 228 964 l 228 875 l 228 868 m 474 868 q 493 833 474 831 l 594 839 q 615 848 610 840 q 619 876 619 856 l 619 943 q 615 976 619 968 q 597 985 611 985 l 500 979 q 478 971 483 978 q 474 942 474 964 l 474 875 l 474 868 z "},"z":{"ha":563,"x_min":28,"x_max":529,"o":"m 490 633 q 497 660 497 650 q 489 696 497 678 q 269 714 379 714 q 57 689 147 714 q 49 653 49 671 q 57 614 49 633 q 274 638 156 635 l 321 636 l 35 61 q 28 36 28 44 q 39 -1 28 18 q 232 -19 136 -19 q 521 13 378 -19 q 529 47 529 29 q 518 93 529 68 q 219 63 394 65 l 201 63 l 490 633 z "},"ª":{"ha":572,"x_min":69,"x_max":525,"o":"m 83 908 q 172 928 107 917 q 275 939 236 939 q 328 928 315 939 q 342 885 342 918 l 342 831 q 194 819 247 826 q 105 790 140 813 q 69 721 69 767 l 69 594 q 90 543 69 558 q 160 528 110 528 q 349 557 244 528 q 358 533 349 538 q 401 528 367 528 q 522 544 463 528 q 525 567 525 556 q 521 590 525 582 l 460 589 q 450 638 450 589 l 450 933 q 358 999 450 999 q 82 963 211 999 q 78 939 78 954 q 83 908 78 924 m 342 611 q 235 590 271 590 q 178 632 178 590 l 178 704 q 190 744 178 733 q 238 764 201 756 q 342 775 269 774 l 342 611 z "},"º":{"ha":526,"x_min":75,"x_max":454,"o":"m 454 901 q 430 978 454 958 q 339 999 406 999 q 139 976 200 999 q 75 899 75 954 l 75 626 q 101 549 75 569 q 194 528 126 528 q 393 550 332 528 q 454 628 454 574 l 454 901 m 185 875 q 206 926 185 913 q 293 940 228 940 q 334 926 322 940 q 346 871 346 911 l 346 651 q 324 601 346 615 q 238 588 303 588 q 196 602 207 588 q 185 657 185 617 l 185 875 z "},"⁄":{"ha":542,"x_min":-14,"x_max":556,"o":"m 556 1022 q 478 1064 531 1060 l -14 -26 q 64 -67 18 -62 l 556 1022 z "},"½":{"ha":1100,"x_min":39,"x_max":1064,"o":"m 965 299 q 1017 372 1000 338 q 1033 446 1033 407 l 1033 492 q 1008 577 1033 551 q 915 603 983 603 q 742 581 803 603 q 667 489 667 551 l 667 394 q 681 381 667 381 q 746 386 724 381 q 783 407 783 393 l 783 478 q 799 527 783 515 q 851 543 814 539 l 867 543 q 894 536 883 543 q 906 517 903 531 q 908 478 908 503 l 908 429 q 879 354 908 400 q 736 154 796 228 q 667 64 683 88 q 679 7 667 35 q 964 29 867 7 q 1064 99 1064 50 l 1064 175 q 1050 189 1064 189 q 960 179 989 189 q 946 163 946 174 l 946 107 q 938 92 946 97 q 910 82 929 86 q 767 71 864 72 l 965 299 m 776 1022 q 699 1064 751 1060 l 207 -26 q 285 -67 239 -62 l 776 1022 m 308 418 q 311 439 311 429 q 308 461 311 447 l 251 460 q 242 506 242 460 l 242 967 q 232 995 242 989 q 186 1001 222 1001 q 42 986 106 1001 q 39 965 39 972 q 42 943 39 954 l 110 944 q 119 899 119 944 l 119 438 q 127 407 119 413 q 169 401 135 401 q 308 418 254 403 z "},"¼":{"ha":1031,"x_min":39,"x_max":989,"o":"m 308 418 q 311 439 311 429 q 308 461 311 447 l 251 460 q 242 506 242 460 l 242 967 q 232 995 242 989 q 186 1001 222 1001 q 42 986 106 1001 q 39 965 39 972 q 42 943 39 954 l 110 944 q 119 899 119 944 l 119 438 q 127 407 119 413 q 169 401 135 401 q 308 418 254 403 m 776 1022 q 699 1064 751 1060 l 207 -26 q 285 -67 239 -62 l 776 1022 m 983 158 q 988 183 988 167 q 982 214 988 199 l 919 208 l 919 610 q 796 596 838 610 l 574 185 q 569 160 569 176 l 574 129 l 797 144 l 797 38 q 811 8 797 14 q 867 1 825 1 q 986 18 932 1 l 989 31 l 986 47 l 928 46 q 919 92 919 46 l 919 153 l 983 158 m 803 496 q 797 388 797 431 l 797 201 l 658 192 l 768 403 q 801 496 783 440 l 803 496 z "},"¾":{"ha":1074,"x_min":58,"x_max":1032,"o":"m 1026 158 q 1031 183 1031 167 q 1025 214 1031 199 l 963 208 l 963 610 q 839 596 881 610 l 617 185 q 613 160 613 176 l 617 129 l 840 144 l 840 38 q 854 8 840 14 q 910 1 868 1 q 1029 18 975 1 l 1032 31 l 1029 47 l 971 46 q 963 92 963 46 l 963 153 l 1026 158 m 846 496 q 840 388 840 431 l 840 201 l 701 192 l 811 403 q 844 496 826 440 l 846 496 m 294 818 q 291 785 294 797 q 276 767 288 774 q 246 754 265 758 q 190 747 226 750 q 186 722 186 742 q 192 690 186 703 q 215 693 208 693 l 233 693 q 292 668 281 693 q 299 608 299 653 l 299 533 l 299 515 q 297 494 299 504 q 292 478 296 483 q 229 458 279 460 q 178 471 192 456 q 164 539 164 486 l 164 614 q 150 629 164 629 q 90 624 114 629 q 67 613 75 618 q 58 601 58 608 l 58 514 q 85 424 58 450 q 178 401 113 399 q 283 411 242 406 q 353 428 324 417 q 417 515 417 453 l 417 625 q 402 699 417 674 q 340 731 388 724 l 340 733 q 388 760 376 742 q 400 803 400 779 l 400 893 q 382 978 400 951 q 318 1004 364 1004 q 140 979 211 1004 q 65 889 65 951 l 65 796 q 79 781 65 781 q 139 786 115 781 q 171 808 171 793 l 171 876 q 173 907 171 897 q 182 924 175 917 q 243 943 196 938 q 283 928 272 946 q 294 871 294 911 l 294 818 m 846 1022 q 768 1064 821 1060 l 276 -26 q 354 -67 308 -62 l 846 1022 z "},"¹":{"ha":339,"x_min":32,"x_max":304,"o":"m 301 418 q 304 439 304 429 q 301 461 304 447 l 244 460 q 235 506 235 460 l 235 967 q 225 995 235 989 q 179 1001 215 1001 q 35 986 99 1001 q 32 965 32 972 q 35 943 32 954 l 103 944 q 113 899 113 944 l 113 438 q 120 407 113 413 q 163 401 128 401 q 301 418 247 403 z "},"²":{"ha":513,"x_min":74,"x_max":471,"o":"m 372 699 q 424 772 407 738 q 440 846 440 807 l 440 892 q 415 977 440 951 q 322 1003 390 1003 q 149 981 210 1003 q 74 889 74 951 l 74 794 q 88 781 74 781 q 153 786 131 781 q 190 807 190 793 l 190 878 q 206 927 190 915 q 258 943 221 939 l 274 943 q 301 936 290 943 q 313 917 310 931 q 315 878 315 903 l 315 829 q 286 754 315 800 q 143 554 203 628 q 74 464 90 488 q 86 407 74 435 q 371 429 274 407 q 471 499 471 450 l 471 575 q 457 589 471 589 q 367 579 396 589 q 353 563 353 574 l 353 507 q 344 492 353 497 q 317 482 336 486 q 174 471 271 472 l 372 699 z "},"³":{"ha":515,"x_min":72,"x_max":431,"o":"m 308 818 q 305 785 308 797 q 290 767 301 774 q 260 754 279 758 q 204 747 240 750 q 200 722 200 742 q 206 690 200 703 q 229 693 222 693 l 247 693 q 306 668 294 693 q 313 608 313 653 l 313 533 l 313 515 q 311 494 313 504 q 306 478 310 483 q 243 458 293 460 q 192 471 206 456 q 178 539 178 486 l 178 614 q 164 629 178 629 q 104 624 128 629 q 81 613 89 618 q 72 601 72 608 l 72 514 q 99 424 72 450 q 192 401 126 399 q 297 411 256 406 q 367 428 338 417 q 431 515 431 453 l 431 625 q 416 699 431 674 q 354 731 401 724 l 354 733 q 402 760 390 742 q 414 803 414 779 l 414 893 q 396 978 414 951 q 332 1004 378 1004 q 154 979 225 1004 q 79 889 79 951 l 79 796 q 93 781 79 781 q 153 786 129 781 q 185 808 185 793 l 185 876 q 187 907 185 897 q 196 924 189 917 q 257 943 210 938 q 297 928 286 946 q 308 871 308 911 l 308 818 z "},"⁴":{"ha":486,"x_min":17,"x_max":436,"o":"m 431 558 q 435 583 435 567 q 429 614 435 599 l 367 608 l 367 1010 q 243 996 285 1010 l 21 585 q 17 560 17 576 l 21 529 l 244 544 l 244 438 q 258 408 244 414 q 314 401 272 401 q 433 418 379 401 l 436 431 l 433 447 l 375 446 q 367 492 367 446 l 367 553 l 431 558 m 250 896 q 244 788 244 831 l 244 601 l 106 592 l 215 803 q 249 896 231 840 l 250 896 z "},"*":{"ha":661,"x_min":57,"x_max":608,"o":"m 536 610 q 571 596 560 596 q 588 608 582 596 l 599 636 q 603 653 603 647 q 597 667 603 661 q 575 682 590 674 l 414 774 l 578 868 q 608 899 608 886 q 603 913 608 906 l 585 935 q 564 950 574 950 q 535 938 553 950 l 374 844 l 374 1033 q 369 1069 374 1060 q 349 1078 364 1079 l 319 1074 q 297 1063 301 1071 q 292 1031 292 1054 l 292 844 l 129 939 q 94 953 106 953 q 78 940 85 953 l 67 913 q 63 896 63 903 q 69 881 63 888 q 90 867 75 875 l 250 774 l 88 681 q 57 650 57 663 q 63 636 57 643 l 81 614 q 101 599 92 599 q 131 611 113 599 l 292 703 l 292 515 q 297 479 292 489 q 317 471 301 469 l 346 475 q 369 486 364 478 q 374 518 374 494 l 374 703 l 536 610 z "},"\\":{"ha":535,"x_min":42,"x_max":493,"o":"m 157 1061 q 100 1072 119 1072 q 42 1061 78 1072 l 379 -211 q 439 -224 415 -224 q 493 -211 464 -224 l 157 1061 z "},"·":{"ha":318,"x_min":79,"x_max":238,"o":"m 79 382 q 84 346 79 356 q 104 338 89 336 l 210 342 q 233 353 228 344 q 238 385 238 361 l 238 456 q 233 492 238 482 q 213 500 228 501 l 107 496 q 84 485 89 493 q 79 453 79 476 l 79 382 z "},"•":{"ha":475,"x_min":88,"x_max":388,"o":"m 88 426 q 97 359 88 378 q 135 343 107 340 l 335 351 q 378 373 369 357 q 388 432 388 389 l 388 567 q 378 634 388 615 q 340 650 368 653 l 140 643 q 96 619 106 638 q 88 561 88 604 l 88 426 z "},":":{"ha":318,"x_min":81,"x_max":239,"o":"m 81 621 q 85 585 81 594 q 106 576 90 575 l 211 581 q 234 592 229 583 q 239 624 239 600 l 239 694 q 234 731 239 721 q 214 739 229 740 l 108 735 q 85 724 90 732 q 81 692 81 715 l 81 621 m 81 32 q 85 -4 81 6 q 106 -12 90 -14 l 211 -8 q 234 3 229 -6 q 239 35 239 11 l 239 106 q 234 142 239 132 q 214 150 229 151 l 108 146 q 85 135 90 143 q 81 103 81 126 l 81 32 z "},",":{"ha":308,"x_min":32,"x_max":232,"o":"m 232 106 q 227 142 232 132 q 207 150 222 151 l 101 146 q 78 135 83 143 q 74 103 74 126 l 74 32 q 78 -4 74 6 q 99 -12 83 -14 l 143 -10 q 108 -72 142 -40 q 32 -122 75 -104 q 36 -144 32 -137 q 61 -176 40 -150 q 232 35 232 -132 l 232 106 z "},"!":{"ha":411,"x_min":29,"x_max":306,"o":"m 131 917 q 146 861 144 917 l 146 256 q 169 232 146 232 q 282 247 229 232 q 304 275 304 256 l 304 931 q 301 972 306 960 q 279 987 296 983 q 221 990 263 990 q 33 964 125 990 q 29 940 29 951 q 35 914 29 924 l 131 917 m 144 32 q 149 -4 144 6 q 169 -12 154 -14 l 275 -8 q 298 3 293 -6 q 303 35 303 11 l 303 106 q 298 142 303 132 q 278 150 293 151 l 172 146 q 149 135 154 143 q 144 103 144 126 l 144 32 z "},"¡":{"ha":389,"x_min":401,"x_max":429,"o":"m 411 833 q 414 828 413 833 l 414 767 q 415 765 414 765 q 426 767 424 765 q 429 769 429 767 l 429 835 q 427 840 429 839 q 421 840 425 840 q 401 838 408 840 l 401 836 q 403 833 401 833 l 411 833 m 413 744 q 415 740 413 740 l 426 740 q 429 746 429 742 l 429 753 q 426 757 429 757 l 415 757 q 413 751 413 754 l 413 744 z "},"#":{"ha":844,"x_min":46,"x_max":799,"o":"m 501 7 q 544 -3 519 -3 q 610 14 572 -3 l 624 313 l 781 326 q 783 358 783 340 q 771 415 783 390 l 628 403 l 638 606 l 796 619 q 799 651 799 633 q 786 708 799 683 l 642 696 l 656 976 q 608 983 628 983 q 547 969 575 983 l 533 686 l 329 668 l 343 949 q 296 956 315 956 q 235 942 263 956 l 221 658 l 65 646 q 61 611 61 629 q 72 557 61 582 l 217 569 l 207 367 l 50 353 q 46 318 46 336 q 57 264 46 289 l 203 276 l 189 -21 q 232 -31 207 -31 q 297 -14 260 -31 l 311 286 l 515 303 l 501 7 m 519 393 l 315 376 l 325 579 l 529 596 l 519 393 z "},".":{"ha":307,"x_min":74,"x_max":232,"o":"m 74 32 q 78 -4 74 6 q 99 -12 83 -14 l 204 -8 q 227 3 222 -6 q 232 35 232 11 l 232 106 q 227 142 232 132 q 207 150 222 151 l 101 146 q 78 135 83 143 q 74 103 74 126 l 74 32 z "},"?":{"ha":664,"x_min":53,"x_max":622,"o":"m 456 779 q 401 671 456 744 q 282 499 325 568 q 239 390 239 431 l 239 257 q 264 232 239 232 q 382 278 382 232 l 382 389 q 503 585 382 447 q 588 701 553 642 q 622 804 622 761 q 584 949 622 904 q 456 993 546 993 q 327 986 386 993 q 206 961 268 979 q 94 898 135 939 q 53 800 53 857 l 53 643 q 78 618 53 618 q 219 664 219 621 l 219 793 q 247 868 219 840 q 371 914 293 914 q 437 886 418 914 q 456 793 456 858 l 456 779 m 233 32 q 238 -4 233 6 q 258 -12 243 -14 l 364 -8 q 387 3 382 -6 q 392 35 392 11 l 392 106 q 387 142 392 132 q 367 150 382 151 l 261 146 q 238 135 243 143 q 233 103 233 126 l 233 32 z "},"¿":{"ha":654,"x_min":665,"x_max":722,"o":"m 706 819 q 700 808 706 815 q 690 796 697 806 q 683 781 683 786 l 683 768 q 686 765 683 765 q 699 769 699 765 l 699 781 q 710 800 699 786 q 722 822 722 813 q 706 842 722 842 q 681 838 693 842 q 665 822 665 833 l 665 806 q 668 804 665 804 q 682 808 682 804 l 682 821 q 685 829 682 824 q 697 833 689 833 q 706 821 706 833 l 706 819 m 683 744 q 686 740 683 740 l 696 740 q 699 746 699 742 l 699 753 q 696 757 699 757 l 686 757 q 683 751 683 756 l 683 744 z "},"\"":{"ha":508,"x_min":75,"x_max":433,"o":"m 75 740 q 80 704 75 714 q 100 696 85 694 l 171 700 q 194 711 189 703 q 199 743 199 719 l 199 967 q 194 1003 199 993 q 174 1011 189 1013 l 103 1007 q 80 996 85 1004 q 75 964 75 988 l 75 740 m 310 740 q 315 704 310 714 q 335 696 319 694 l 406 700 q 428 711 424 703 q 433 743 433 719 l 433 967 q 428 1003 433 993 q 408 1011 424 1013 l 338 1007 q 315 996 319 1004 q 310 964 310 988 l 310 740 z "},"'":{"ha":274,"x_min":75,"x_max":199,"o":"m 75 740 q 80 704 75 714 q 100 696 85 694 l 171 700 q 194 711 189 703 q 199 743 199 719 l 199 967 q 194 1003 199 993 q 174 1011 189 1013 l 103 1007 q 80 996 85 1004 q 75 964 75 988 l 75 740 z "},";":{"ha":354,"x_min":61,"x_max":264,"o":"m 106 621 q 110 585 106 594 q 131 576 115 575 l 236 581 q 259 592 254 583 q 264 624 264 600 l 264 694 q 259 731 264 721 q 239 739 254 740 l 133 735 q 110 724 115 732 q 106 692 106 715 l 106 621 m 261 106 q 256 142 261 132 q 236 150 251 151 l 131 146 q 108 135 113 143 q 103 103 103 126 l 103 32 q 108 -4 103 6 q 128 -12 113 -14 l 172 -10 q 138 -72 171 -40 q 61 -122 104 -104 q 65 -144 61 -137 q 90 -176 69 -150 q 261 35 261 -133 l 261 106 z "},"/":{"ha":535,"x_min":42,"x_max":493,"o":"m 42 -211 q 96 -224 71 -224 q 156 -211 121 -224 l 493 1061 q 435 1072 457 1072 q 378 1061 415 1072 l 42 -211 z "},"_":{"ha":554,"x_min":0,"x_max":554,"o":"m 549 -504 q 554 -453 554 -483 q 547 -400 554 -435 l 501 -401 q 276 -410 428 -406 q 53 -418 125 -414 l 7 -419 q 0 -464 0 -444 q 8 -524 0 -493 l 549 -504 z "},"{":{"ha":439,"x_min":-4,"x_max":397,"o":"m 168 615 q 127 507 168 542 q 4 469 86 472 q -4 440 -4 456 q 4 411 -4 426 q 126 375 83 410 q 168 264 168 340 l 168 -36 q 181 -124 168 -92 q 221 -169 193 -156 q 283 -186 249 -182 q 390 -190 317 -190 q 397 -156 397 -167 q 392 -128 397 -137 q 315 -106 335 -128 q 296 -31 294 -85 l 296 268 q 156 440 296 413 l 156 442 q 296 613 293 468 l 296 910 q 315 985 294 964 q 392 1007 335 1007 q 397 1035 397 1017 q 390 1069 397 1046 q 285 1067 315 1069 q 226 1051 254 1064 q 168 915 168 1028 l 168 615 z "},"}":{"ha":440,"x_min":39,"x_max":440,"o":"m 268 265 q 309 374 268 339 q 432 411 350 408 q 440 440 440 426 q 432 469 440 456 q 310 506 353 471 q 268 617 268 540 l 268 917 q 256 1004 268 972 q 215 1050 243 1036 q 153 1067 188 1063 q 46 1071 119 1071 q 39 1036 39 1047 q 44 1008 39 1018 q 122 987 101 1008 q 140 911 142 965 l 140 613 q 281 440 140 468 l 281 439 q 140 268 143 413 l 140 -29 q 122 -105 142 -83 q 44 -126 101 -126 q 39 -154 39 -136 q 46 -189 39 -165 q 151 -186 121 -189 q 211 -171 182 -183 q 268 -35 268 -146 l 268 265 z "},"[":{"ha":390,"x_min":103,"x_max":357,"o":"m 104 -118 q 108 -159 103 -147 q 128 -174 113 -171 q 182 -178 143 -178 q 353 -151 269 -178 q 357 -129 357 -142 q 351 -101 357 -118 l 247 -104 q 232 -28 232 -104 l 232 906 q 247 982 232 982 l 351 979 q 357 1007 357 996 q 353 1029 357 1019 q 182 1056 269 1056 q 128 1052 143 1056 q 108 1037 113 1049 q 104 996 103 1025 l 104 -118 z "},"]":{"ha":390,"x_min":35,"x_max":289,"o":"m 288 996 q 284 1037 289 1025 q 264 1052 279 1049 q 210 1056 249 1056 q 39 1029 122 1056 q 35 1007 35 1019 q 40 979 35 996 l 144 982 q 160 906 160 982 l 160 -28 q 144 -104 160 -104 l 40 -101 q 35 -129 35 -118 q 39 -151 35 -142 q 210 -178 122 -178 q 264 -174 249 -178 q 284 -159 279 -171 q 288 -118 289 -147 l 288 996 z "},"(":{"ha":374,"x_min":50,"x_max":340,"o":"m 260 -175 q 294 -185 278 -185 q 340 -175 322 -185 q 231 119 265 -49 q 196 436 196 276 q 231 753 196 596 q 340 1047 267 921 q 306 1057 322 1057 q 260 1047 279 1057 q 86 693 135 885 q 50 436 50 557 q 54 361 50 397 q 85 186 61 274 q 156 -6 107 93 q 260 -175 196 -93 z "},")":{"ha":374,"x_min":33,"x_max":324,"o":"m 114 1047 q 79 1057 96 1057 q 33 1047 51 1057 q 144 753 107 922 q 178 436 178 593 q 144 121 178 279 q 33 -175 107 -51 q 68 -185 51 -185 q 114 -175 94 -185 q 289 179 238 -15 q 324 436 324 317 q 321 513 324 463 q 290 686 310 604 q 219 878 267 776 q 114 1047 175 968 z "},"—":{"ha":1349,"x_min":85,"x_max":1260,"o":"m 1253 424 q 1260 479 1260 449 q 1250 533 1260 510 l 671 503 l 93 472 q 85 421 85 446 q 96 363 85 396 l 1253 424 z "},"–":{"ha":900,"x_min":89,"x_max":810,"o":"m 800 407 q 810 461 810 435 q 797 517 810 486 l 96 479 q 89 426 89 444 q 99 369 89 399 l 800 407 z "},"-":{"ha":476,"x_min":89,"x_max":392,"o":"m 383 381 q 392 449 392 418 q 381 511 392 475 l 97 494 q 89 432 89 461 q 100 364 89 401 l 383 381 z "},"­":{"ha":475,"x_min":88,"x_max":388,"o":"m 382 381 q 388 442 388 407 q 379 511 388 476 l 96 494 q 88 431 88 460 q 99 364 88 397 l 382 381 z "},"«":{"ha":683,"x_min":54,"x_max":618,"o":"m 338 732 q 256 790 310 790 l 249 790 q 240 789 246 789 l 54 464 l 240 140 q 256 139 244 139 q 338 196 313 139 l 182 464 l 338 732 m 618 732 q 536 790 592 790 l 529 790 q 521 789 526 789 l 335 464 l 521 140 q 536 139 525 139 q 618 196 593 139 l 463 464 l 618 732 z "},"»":{"ha":683,"x_min":65,"x_max":629,"o":"m 65 196 q 147 139 89 139 q 163 140 158 139 l 349 464 l 163 789 q 156 790 157 789 l 147 790 q 65 732 89 790 l 221 464 l 65 196 m 346 196 q 428 139 369 139 q 443 140 439 139 l 629 464 l 443 789 q 436 790 438 789 l 428 790 q 346 732 369 790 l 501 464 l 346 196 z "},"‹":{"ha":403,"x_min":54,"x_max":338,"o":"m 338 732 q 256 790 310 790 l 249 790 q 240 789 246 789 l 54 464 l 240 140 q 256 139 244 139 q 338 196 313 139 l 182 464 l 338 732 z "},"›":{"ha":403,"x_min":65,"x_max":349,"o":"m 65 196 q 147 139 89 139 q 163 140 158 139 l 349 464 l 163 789 q 156 790 157 789 l 147 790 q 65 732 89 790 l 221 464 l 65 196 z "},"„":{"ha":586,"x_min":32,"x_max":510,"o":"m 232 106 q 227 142 232 132 q 207 150 222 151 l 101 146 q 78 135 83 143 q 74 103 74 126 l 74 32 q 78 -4 74 6 q 99 -12 83 -14 l 143 -10 q 108 -72 142 -40 q 32 -122 75 -104 q 36 -144 32 -137 q 61 -176 40 -150 q 232 35 232 -132 l 232 106 m 510 106 q 505 142 510 132 q 485 150 500 151 l 379 146 q 356 135 361 143 q 351 103 351 126 l 351 32 q 356 -4 351 6 q 376 -12 361 -14 l 421 -10 q 386 -72 419 -40 q 310 -122 353 -104 q 314 -144 310 -137 q 339 -176 318 -150 q 510 35 510 -133 l 510 106 z "},"“":{"ha":590,"x_min":65,"x_max":543,"o":"m 65 708 q 70 672 65 682 q 90 664 75 663 l 196 668 q 219 679 214 671 q 224 711 224 688 l 224 782 q 219 818 224 808 q 199 826 214 828 l 154 824 q 189 886 156 854 q 265 936 222 918 q 261 958 265 951 q 236 990 257 964 q 65 779 65 947 l 65 708 m 343 708 q 348 672 343 682 q 368 664 353 663 l 474 668 q 497 679 492 671 q 501 711 501 688 l 501 782 q 497 818 501 808 q 476 826 492 828 l 432 824 q 467 886 433 854 q 543 936 500 918 q 539 958 543 951 q 514 990 535 964 q 343 779 343 947 l 343 708 z "},"”":{"ha":586,"x_min":54,"x_max":532,"o":"m 254 944 q 249 981 254 971 q 229 989 244 990 l 124 985 q 101 974 106 982 q 96 942 96 965 l 96 871 q 101 835 96 844 q 121 826 106 825 l 165 829 q 131 767 164 799 q 54 717 97 735 q 58 695 54 701 q 83 663 63 689 q 254 874 254 707 l 254 944 m 532 944 q 527 981 532 971 q 507 989 522 990 l 401 985 q 378 974 383 982 q 374 942 374 965 l 374 871 q 378 835 374 844 q 399 826 383 825 l 443 829 q 408 767 442 799 q 332 717 375 735 q 336 695 332 701 q 361 663 340 689 q 532 874 532 707 l 532 944 z "},"‘":{"ha":313,"x_min":65,"x_max":265,"o":"m 65 708 q 70 672 65 682 q 90 664 75 663 l 196 668 q 219 679 214 671 q 224 711 224 688 l 224 782 q 219 818 224 808 q 199 826 214 828 l 154 824 q 189 886 156 854 q 265 936 222 918 q 261 958 265 951 q 236 990 257 964 q 65 779 65 947 l 65 708 z "},"’":{"ha":308,"x_min":54,"x_max":254,"o":"m 254 944 q 249 981 254 971 q 229 989 244 990 l 124 985 q 101 974 106 982 q 96 942 96 965 l 96 871 q 101 835 96 844 q 121 826 106 825 l 165 829 q 131 767 164 799 q 54 717 97 735 q 58 695 54 701 q 83 663 63 689 q 254 874 254 707 l 254 944 z "},"‚":{"ha":308,"x_min":32,"x_max":232,"o":"m 232 106 q 227 142 232 132 q 207 150 222 151 l 101 146 q 78 135 83 143 q 74 103 74 126 l 74 32 q 78 -4 74 6 q 99 -12 83 -14 l 143 -10 q 108 -72 142 -40 q 32 -122 75 -104 q 36 -144 32 -137 q 61 -176 40 -150 q 232 35 232 -132 l 232 106 z "}," ":{"ha":317,"x_min":0,"x_max":0,"o":""},"¢":{"ha":643,"x_min":68,"x_max":590,"o":"m 565 708 q 411 714 522 714 l 411 847 q 374 854 394 854 q 333 846 356 854 l 333 708 q 122 654 178 692 q 82 610 94 635 q 68 551 69 585 l 68 83 q 102 6 68 29 q 211 -18 136 -18 q 333 -12 283 -18 l 333 -154 q 371 -161 354 -161 q 411 -153 388 -161 l 411 -4 q 585 38 494 8 q 590 65 590 47 q 583 100 590 83 l 539 88 q 433 64 500 76 q 329 51 367 51 q 247 68 267 51 q 226 138 226 85 l 226 551 q 287 624 228 600 q 417 647 346 647 q 567 643 539 647 q 572 675 572 656 q 565 708 572 696 z "},"¤":{"ha":733,"x_min":68,"x_max":665,"o":"m 113 497 q 158 349 113 414 l 68 257 q 126 199 68 215 l 218 290 q 367 243 282 243 q 515 290 447 243 l 608 199 q 665 257 664 214 l 574 349 q 622 497 622 410 q 574 646 622 581 l 665 738 q 607 797 646 788 l 514 704 q 367 753 440 753 q 217 704 290 753 l 126 796 q 68 738 82 769 l 160 646 q 113 497 113 582 m 218 497 q 262 613 218 565 q 367 661 306 661 q 474 614 431 661 q 517 497 517 567 q 473 382 517 431 q 367 333 429 333 q 262 382 306 333 q 218 497 218 431 z "},"$":{"ha":699,"x_min":42,"x_max":631,"o":"m 49 78 q 42 43 42 57 q 50 4 42 24 q 274 -8 192 -6 l 274 -137 q 311 -144 292 -144 q 351 -136 333 -144 l 351 -7 q 631 144 628 3 q 625 182 631 164 q 589 265 619 206 q 562 311 581 283 q 538 349 543 339 q 511 388 528 360 l 489 418 l 299 696 q 232 836 232 793 q 283 890 232 874 q 414 906 335 906 q 586 890 504 906 q 593 936 593 914 q 590 965 593 946 q 411 976 483 976 l 396 976 l 396 1082 q 358 1089 379 1089 q 318 1081 340 1089 l 318 974 q 65 836 65 954 q 111 696 63 767 l 392 278 q 454 142 454 181 q 408 81 457 96 q 226 64 361 64 q 49 78 147 64 z "},"€":{"ha":822,"x_min":49,"x_max":704,"o":"m 704 944 q 696 982 704 965 q 550 989 629 989 q 242 951 358 989 q 126 800 126 913 l 126 590 l 56 581 q 49 547 49 560 q 57 511 49 528 q 126 518 126 518 l 126 431 l 56 421 q 49 388 49 400 q 57 351 49 368 q 126 358 126 358 l 126 169 q 148 56 126 96 q 218 -1 169 15 q 354 -18 267 -18 q 694 25 553 -18 q 701 56 701 42 q 693 94 701 74 q 426 61 575 64 q 344 72 372 61 q 305 110 317 83 q 293 189 293 138 l 293 372 q 539 386 454 386 q 546 418 546 407 q 538 458 546 442 q 293 447 399 456 l 293 532 q 581 546 454 546 q 588 578 588 567 q 579 618 588 601 q 293 607 424 617 l 293 793 q 388 900 293 885 q 585 919 478 922 l 585 790 q 610 765 585 765 q 681 776 636 765 q 704 806 704 783 l 704 944 z "},"£":{"ha":861,"x_min":46,"x_max":771,"o":"m 71 -6 q 322 -18 199 -18 q 753 26 543 -18 q 761 63 761 43 q 753 107 761 85 q 346 64 574 61 l 346 372 l 608 393 q 615 424 615 407 q 607 463 615 444 l 346 443 l 346 779 q 356 860 346 833 q 392 899 365 886 q 476 918 419 911 l 531 921 q 579 910 563 921 q 603 869 596 899 q 610 785 610 840 l 610 685 q 635 660 610 660 q 747 676 681 660 q 771 706 771 683 l 771 804 q 750 921 771 879 q 681 979 729 963 q 549 992 633 996 q 335 962 415 983 q 217 898 256 940 q 179 786 179 856 l 179 431 l 53 421 q 46 390 46 403 q 54 351 46 372 l 179 360 l 179 93 q 182 61 179 86 q 68 69 118 63 q 63 32 63 54 q 71 -6 63 10 z "},"¥":{"ha":1011,"x_min":49,"x_max":967,"o":"m 868 560 l 961 554 q 967 586 967 569 q 958 624 967 610 l 868 629 l 868 965 q 843 990 868 990 q 725 974 775 990 q 701 944 701 965 l 701 635 q 642 636 668 635 l 582 636 q 324 624 446 636 l 324 931 q 319 972 325 960 q 294 987 313 983 q 231 990 275 990 q 53 964 144 990 q 49 940 49 951 q 54 914 49 924 l 142 917 q 157 840 157 917 l 157 601 l 54 581 q 49 549 49 565 q 57 511 49 526 l 157 532 l 157 443 l 54 422 q 49 390 49 407 q 57 353 49 368 l 157 374 l 157 88 q 193 7 157 32 q 307 -18 229 -18 q 701 50 510 -18 l 701 -135 q 632 -232 703 -215 q 357 -264 524 -262 q 199 -254 243 -264 q 193 -286 193 -269 q 201 -324 193 -310 q 365 -333 285 -333 q 735 -294 601 -333 q 868 -142 868 -256 l 868 401 l 961 396 q 967 428 967 411 q 958 465 967 451 l 868 471 l 868 560 m 701 476 q 642 478 668 476 l 582 478 q 324 465 446 478 l 324 551 q 621 564 469 564 l 701 564 l 701 476 m 432 74 q 346 92 368 74 q 324 164 324 110 l 324 393 q 621 406 469 406 l 701 406 l 701 119 q 432 74 533 74 z "},"~":{"ha":686,"x_min":60,"x_max":632,"o":"m 117 356 q 170 403 132 386 q 246 421 208 421 q 335 383 275 421 q 446 346 396 346 q 632 511 558 346 q 609 535 626 524 q 575 550 592 547 q 525 502 560 518 q 446 486 490 486 q 354 524 413 486 q 246 560 294 560 q 60 394 133 560 q 81 369 68 378 q 117 356 94 361 z "},"÷":{"ha":724,"x_min":65,"x_max":658,"o":"m 279 688 q 284 651 279 661 q 304 643 289 642 l 410 647 q 433 658 428 650 q 438 690 438 667 l 438 761 q 433 797 438 788 q 413 806 428 807 l 307 801 q 284 790 289 799 q 279 758 279 782 l 279 688 m 650 425 q 658 475 658 450 q 647 535 658 499 l 75 504 q 65 451 65 475 q 78 394 65 431 l 650 425 m 279 175 q 284 139 279 149 q 304 131 289 129 l 410 135 q 433 146 428 138 q 438 178 438 154 l 438 249 q 433 285 438 275 q 413 293 428 294 l 307 289 q 284 278 289 286 q 279 246 279 269 l 279 175 z "},"=":{"ha":779,"x_min":93,"x_max":683,"o":"m 668 575 q 678 632 678 604 q 668 686 678 656 l 101 656 q 93 604 93 629 q 101 544 93 574 l 668 575 m 674 333 q 683 390 683 363 q 674 444 683 414 l 107 414 q 99 363 99 388 q 107 303 99 332 l 674 333 z "},">":{"ha":533,"x_min":49,"x_max":458,"o":"m 451 426 q 458 457 458 439 q 453 486 458 474 l 126 783 q 57 708 75 763 l 326 463 l 49 246 q 117 165 58 192 l 451 426 z "},"<":{"ha":533,"x_min":54,"x_max":464,"o":"m 396 165 q 464 246 454 192 l 186 463 l 456 708 q 386 783 438 763 l 60 486 q 54 457 54 474 q 61 426 54 439 l 396 165 z "},"¬":{"ha":672,"x_min":76,"x_max":574,"o":"m 454 264 q 504 257 489 257 q 574 269 539 257 l 568 579 l 88 554 q 76 504 76 518 q 90 446 76 479 l 450 464 l 454 264 z "},"µ":{"ha":843,"x_min":101,"x_max":807,"o":"m 532 111 q 338 58 411 58 q 260 110 260 58 l 260 690 q 236 714 260 714 q 124 699 176 714 q 101 671 101 690 l 101 64 q 125 -311 101 -169 q 149 -335 125 -335 q 261 -319 208 -335 q 283 -292 283 -311 l 208 -90 q 176 53 182 -19 l 183 53 q 314 -18 238 -18 q 416 -6 369 -18 q 532 47 463 7 q 537 4 532 17 q 559 -13 542 -8 q 615 -18 576 -18 q 803 8 711 -18 q 807 32 807 21 q 801 58 807 49 l 706 56 q 690 132 690 56 l 690 690 q 667 714 690 714 q 554 699 607 714 q 532 671 532 690 l 532 111 z "},"−":{"ha":782,"x_min":94,"x_max":688,"o":"m 679 429 q 688 479 688 454 q 676 539 688 503 l 104 508 q 94 456 94 479 q 107 399 94 435 l 679 429 z "},"×":{"ha":689,"x_min":85,"x_max":597,"o":"m 524 217 q 565 246 546 225 q 597 299 585 267 l 410 475 l 585 661 q 554 699 576 678 q 511 732 532 721 l 340 544 l 160 718 q 115 683 131 699 q 85 638 100 667 l 269 467 l 101 281 q 176 210 121 243 l 342 390 l 524 217 z "},"%":{"ha":1171,"x_min":51,"x_max":1119,"o":"m 874 1022 q 796 1064 849 1060 l 304 -26 q 382 -67 336 -62 l 874 1022 m 442 861 q 416 951 442 928 q 319 975 390 975 q 115 950 178 975 q 51 858 51 924 l 51 536 q 78 446 51 469 q 176 422 106 422 q 381 449 319 422 q 442 539 442 474 l 442 861 m 164 826 q 184 886 164 869 q 268 903 204 903 q 315 885 301 903 q 329 821 329 867 l 329 571 q 309 511 329 528 q 228 494 289 494 q 176 511 189 494 q 164 576 164 528 l 164 826 m 1119 451 q 1094 542 1119 518 q 997 565 1068 565 q 793 540 856 565 q 729 449 729 514 l 729 126 q 756 36 729 60 q 854 13 783 13 q 1058 39 997 13 q 1119 129 1119 64 l 1119 451 m 842 417 q 862 476 842 460 q 946 493 882 493 q 993 475 979 493 q 1007 411 1007 457 l 1007 161 q 987 101 1007 118 q 906 85 967 85 q 854 101 867 85 q 842 167 842 118 l 842 417 z "},"+":{"ha":686,"x_min":53,"x_max":633,"o":"m 294 161 q 344 153 319 153 q 404 168 369 153 l 399 421 l 628 432 q 633 479 633 450 q 625 535 633 508 l 511 529 l 397 524 l 392 774 q 346 779 363 779 q 282 769 315 779 l 288 517 l 58 506 q 53 456 53 485 q 61 403 53 432 l 175 408 l 289 414 l 294 161 z "},"±":{"ha":743,"x_min":76,"x_max":657,"o":"m 318 331 q 368 322 343 322 q 428 338 393 322 l 422 535 l 651 546 q 657 593 657 564 q 649 649 657 622 l 535 643 l 421 638 l 415 846 q 369 851 386 851 q 306 842 336 851 l 311 631 l 82 619 q 76 569 76 599 q 85 517 76 546 l 199 522 l 313 528 l 318 331 m 651 158 q 657 206 657 176 q 649 261 657 235 l 82 232 q 76 182 76 211 q 85 129 76 158 l 651 158 z "},"|":{"ha":311,"x_min":103,"x_max":208,"o":"m 103 -211 q 156 -219 132 -219 q 208 -211 178 -219 l 208 1061 q 156 1072 172 1072 q 103 1061 136 1072 l 103 -211 z "},"¦":{"ha":315,"x_min":106,"x_max":210,"o":"m 106 517 q 158 506 136 506 q 210 517 179 506 l 210 1061 l 181 1068 q 157 1071 164 1071 q 106 1061 144 1071 l 106 517 m 106 -211 q 158 -222 136 -222 q 210 -211 179 -222 l 210 333 l 181 340 q 157 343 164 343 q 106 333 144 343 l 106 -211 z "},"@":{"ha":1139,"x_min":106,"x_max":1097,"o":"m 860 -14 q 660 -55 799 -35 q 406 -75 522 -75 q 295 -46 326 -75 q 264 58 264 -17 l 264 724 q 276 775 264 756 q 319 809 288 794 q 413 833 351 824 q 681 849 511 849 q 791 819 760 849 q 822 715 822 790 l 822 589 q 529 558 682 582 q 436 512 465 544 q 407 421 407 479 l 407 226 q 439 145 407 169 q 547 121 471 121 q 822 167 663 121 q 829 137 824 146 q 851 124 835 128 q 906 121 868 121 q 1093 147 1001 121 q 1097 171 1097 160 q 1092 197 1097 188 l 996 194 q 981 271 981 194 l 981 735 q 959 849 981 808 q 889 906 938 889 q 753 922 840 922 q 260 881 414 922 q 106 731 106 838 l 106 39 q 127 -75 106 -35 q 197 -132 149 -115 q 333 -149 246 -149 q 863 -83 633 -149 q 868 -50 868 -71 q 860 -14 868 -29 m 822 229 q 653 199 717 199 q 565 261 565 199 l 565 415 q 573 464 565 447 q 599 490 581 481 q 658 507 618 499 q 822 526 739 522 l 822 229 z "},"&":{"ha":942,"x_min":6,"x_max":869,"o":"m 569 42 q 613 -8 594 3 q 678 -18 632 -18 q 864 8 772 -18 q 869 33 869 25 q 863 58 869 44 l 767 56 q 669 150 731 53 l 642 192 l 869 360 q 826 410 868 397 l 600 256 l 408 551 l 568 672 q 629 772 629 718 q 586 892 629 819 q 530 963 558 942 q 471 985 501 985 q 420 974 447 985 q 357 942 393 963 q 205 828 254 881 q 156 722 156 776 q 178 647 156 686 l 249 536 q 63 389 119 449 q 6 274 6 328 q 32 190 6 235 l 100 72 q 251 -21 154 -21 q 421 40 331 -21 l 525 111 l 569 42 m 336 838 q 421 875 393 875 q 454 861 440 875 q 489 814 472 844 q 506 760 506 783 q 433 661 506 711 l 368 617 l 306 715 q 289 768 289 744 q 336 838 289 807 m 439 140 q 332 97 375 97 q 231 175 276 97 l 176 268 q 154 332 154 304 q 185 397 154 365 q 289 476 217 429 l 486 172 l 439 140 z "},"¶":{"ha":824,"x_min":50,"x_max":796,"o":"m 703 56 q 688 132 688 56 l 688 931 q 681 969 689 957 q 651 986 672 982 q 583 990 631 990 l 583 56 l 515 56 q 500 132 500 56 l 500 931 q 495 972 501 960 q 470 987 489 983 q 407 990 451 990 q 344 988 389 990 q 248 972 301 983 q 157 944 194 961 q 81 886 111 925 q 50 800 50 847 l 50 653 q 72 539 50 579 q 142 482 93 499 q 278 465 190 465 q 389 467 365 465 l 389 42 q 593 -18 389 -18 q 792 8 700 -18 q 796 32 796 21 q 790 58 796 49 l 703 56 m 350 539 q 269 551 297 539 q 228 591 240 563 q 217 672 217 619 l 217 793 q 250 878 215 850 q 379 914 285 906 q 389 840 389 903 l 389 539 l 350 539 z "},"©":{"ha":1097,"x_min":97,"x_max":1000,"o":"m 97 169 q 117 56 97 96 q 181 -1 136 15 q 304 -18 225 -18 q 835 25 672 -18 q 1000 174 1000 67 l 1000 804 q 981 918 1000 878 q 917 975 961 958 q 793 992 872 992 q 263 950 428 992 q 97 800 97 906 l 97 169 m 882 181 q 842 111 882 139 q 685 71 803 86 q 363 56 563 56 q 249 85 282 56 q 215 189 215 114 l 215 793 q 257 863 215 836 q 414 904 296 889 q 735 918 524 918 q 849 889 815 918 q 882 785 882 860 l 882 181 m 740 740 q 743 768 743 751 q 739 799 743 789 q 636 804 682 804 q 413 780 494 804 q 331 685 331 756 l 331 290 q 362 199 331 224 q 474 174 393 174 q 746 206 638 174 l 750 229 l 750 240 q 746 263 750 250 q 546 236 653 239 q 480 253 497 236 q 463 317 463 269 l 463 667 q 471 704 463 692 q 507 728 479 717 q 657 746 556 746 q 740 740 713 746 z "},"®":{"ha":1097,"x_min":97,"x_max":1000,"o":"m 97 169 q 117 56 97 96 q 181 -1 136 15 q 304 -18 225 -18 q 835 25 672 -18 q 1000 174 1000 67 l 1000 804 q 981 918 1000 878 q 917 975 961 958 q 793 992 872 992 q 263 950 428 992 q 97 800 97 906 l 97 169 m 882 181 q 842 111 882 139 q 685 71 803 86 q 363 56 563 56 q 249 85 282 56 q 215 189 215 114 l 215 793 q 257 863 215 836 q 414 904 296 889 q 735 918 524 918 q 849 889 815 918 q 882 785 882 860 l 882 181 m 278 707 q 407 733 322 721 q 564 746 492 746 q 628 730 610 746 q 647 675 647 714 l 647 599 q 635 558 647 569 q 585 539 624 547 q 443 522 542 529 l 443 672 q 428 689 443 689 q 339 678 381 689 q 325 660 325 672 l 325 210 q 327 185 324 192 q 342 175 331 178 q 383 172 354 172 q 501 189 438 172 q 504 204 504 194 q 501 219 504 215 l 453 218 q 443 267 443 218 l 443 468 l 528 468 l 642 210 q 665 179 653 186 q 704 172 678 172 q 828 189 768 172 q 831 203 831 197 q 826 219 831 214 l 785 218 q 744 267 768 218 l 640 485 l 664 489 q 765 581 765 510 l 765 688 q 734 780 765 754 q 622 806 703 806 q 276 764 421 806 q 274 736 274 756 q 278 707 274 714 z "},"§":{"ha":697,"x_min":72,"x_max":649,"o":"m 299 254 q 368 206 364 211 q 413 165 401 182 q 429 114 429 140 q 399 58 429 76 q 297 42 372 42 q 140 58 224 42 q 119 61 124 61 q 103 55 107 61 q 99 38 99 49 q 107 -6 99 18 q 297 -21 233 -21 q 590 122 590 -21 q 458 303 590 217 q 597 387 546 336 q 649 494 649 438 q 617 571 649 531 q 555 629 586 606 q 431 714 524 653 l 340 772 q 299 811 306 800 q 282 861 282 838 q 313 915 281 896 q 425 932 344 932 q 558 918 475 932 q 579 915 575 915 q 593 919 590 915 q 596 931 596 924 q 596 942 596 939 l 596 954 q 589 979 593 971 q 417 992 476 992 q 126 853 126 992 q 244 682 126 765 q 118 609 164 657 q 72 504 72 561 q 81 463 72 483 q 107 417 89 442 q 144 375 125 393 q 222 308 160 358 l 299 254 m 501 450 q 477 390 501 415 q 396 343 453 364 q 249 450 294 407 q 207 525 207 490 q 293 651 207 607 q 501 450 501 529 z "},"°":{"ha":515,"x_min":47,"x_max":468,"o":"m 47 781 q 64 701 47 739 q 110 633 81 663 q 177 588 139 604 q 257 571 215 571 q 407 635 343 571 q 452 701 436 664 q 468 781 468 739 q 451 861 468 822 q 406 929 435 900 q 338 975 376 958 q 257 992 299 992 q 178 976 215 992 q 111 931 140 960 q 47 781 47 867 m 138 781 q 171 873 138 836 q 257 910 204 910 q 344 872 310 910 q 378 781 378 835 q 344 690 378 726 q 257 653 310 653 q 171 690 204 653 q 138 781 138 726 z "},"^":{"ha":685,"x_min":74,"x_max":614,"o":"m 424 789 l 497 728 q 553 685 544 685 q 576 692 563 685 q 601 710 590 699 q 607 729 614 722 l 389 961 q 342 972 378 972 q 294 961 306 972 l 76 729 l 74 724 q 82 710 74 718 q 105 694 88 703 q 131 685 122 685 q 188 728 140 685 l 342 858 l 424 789 z "},"´":{"ha":386,"x_min":31,"x_max":308,"o":"m 208 1011 q 36 835 140 932 q 31 824 31 831 q 44 797 31 814 q 68 781 57 781 q 125 801 81 778 q 278 892 215 847 q 308 925 308 913 q 279 985 308 949 q 231 1022 249 1022 q 208 1011 219 1022 z "},"ˇ":{"ha":483,"x_min":38,"x_max":475,"o":"m 257 785 q 304 796 285 785 l 472 978 l 475 983 q 456 1007 475 992 q 421 1021 432 1021 q 390 1007 408 1021 l 260 899 l 126 1003 q 97 1019 104 1019 q 63 1008 88 1021 q 38 985 38 996 q 42 975 38 982 q 210 796 118 888 q 257 785 221 785 z "},"¸":{"ha":329,"x_min":85,"x_max":294,"o":"m 133 6 l 108 -83 l 108 -89 q 126 -103 108 -103 q 200 -151 200 -106 q 174 -197 200 -176 q 103 -222 147 -218 q 85 -236 85 -224 q 122 -297 85 -271 q 206 -272 165 -296 q 270 -211 246 -247 q 294 -142 294 -175 q 263 -78 294 -103 q 176 -50 232 -53 l 193 6 l 133 6 z "},"ˆ":{"ha":483,"x_min":18,"x_max":457,"o":"m 236 1026 q 189 1015 207 1026 l 21 833 q 18 829 18 831 q 22 819 18 825 q 35 807 26 813 q 75 789 64 789 q 103 804 83 789 l 233 913 l 367 808 q 397 792 390 792 q 415 796 403 792 q 450 814 438 804 q 456 824 454 817 q 451 836 457 831 q 283 1015 375 924 q 236 1026 272 1026 z "},"¨":{"ha":494,"x_min":53,"x_max":444,"o":"m 53 868 q 72 833 53 831 l 172 839 q 194 848 189 840 q 199 876 199 856 l 199 943 q 194 976 199 968 q 175 985 190 985 l 78 979 q 57 971 61 978 q 53 942 53 964 l 53 875 l 53 868 m 299 868 q 318 833 299 831 l 419 839 q 440 848 435 840 q 444 876 444 856 l 444 943 q 440 976 444 968 q 422 985 436 985 l 325 979 q 303 971 308 978 q 299 942 299 964 l 299 875 l 299 868 z "},"`":{"ha":386,"x_min":31,"x_max":308,"o":"m 131 1011 q 108 1022 119 1022 q 60 986 90 1022 q 39 953 47 972 q 31 925 31 935 q 57 894 31 911 q 121 853 89 872 q 257 782 192 807 q 269 781 261 781 q 288 789 279 781 q 302 807 296 796 q 308 825 308 818 q 303 835 308 831 q 131 1011 199 932 z "},"¯":{"ha":554,"x_min":0,"x_max":554,"o":"m 549 1038 q 554 1089 554 1058 q 547 1142 554 1107 l 501 1140 q 276 1132 428 1136 q 53 1124 125 1128 l 7 1122 q 0 1078 0 1097 q 8 1018 0 1050 l 549 1038 z "},"˚":{"ha":414,"x_min":49,"x_max":365,"o":"m 200 765 q 264 776 233 765 q 317 804 294 786 q 352 847 339 822 q 365 896 365 871 q 352 945 365 921 q 317 988 339 969 q 264 1016 294 1006 q 200 1026 233 1026 q 92 989 135 1026 q 49 896 49 951 q 92 803 49 840 q 200 765 135 765 m 206 832 q 152 850 175 832 q 129 896 129 868 q 153 942 129 924 q 206 960 176 960 q 260 942 236 960 q 283 896 283 924 q 278 871 283 882 q 251 844 271 856 q 206 832 231 832 z "},"˜":{"ha":571,"x_min":51,"x_max":513,"o":"m 115 842 q 136 863 124 853 q 196 886 163 886 q 275 850 226 886 q 361 813 324 813 q 468 854 417 813 q 499 888 488 871 q 511 918 511 906 q 502 948 513 933 q 482 963 492 963 q 463 949 475 963 q 383 913 426 913 q 300 947 351 913 q 201 982 249 982 q 150 970 176 982 q 103 940 124 958 q 66 899 81 921 q 51 860 51 878 q 67 835 51 853 q 78 823 72 828 q 88 818 83 818 q 97 822 93 818 l 115 842 z "}}}
